# Blender v2.80 (sub 75) OBJ File: 'Book.blend'
# www.blender.org
mtllib book.mtl
o Cube_Cube.001
v -0.750311 0.066018 1.000000
v -0.750311 0.402304 1.000000
v -0.750311 0.066018 -1.000000
v -0.750311 0.402304 -1.000000
v 0.568953 0.066018 1.000000
v 0.568953 0.402304 1.000000
v 0.568953 0.066018 -1.000000
v 0.568953 0.402304 -1.000000
v -0.714641 0.466821 1.000000
v -0.714641 0.466821 -1.000000
v 0.568953 0.466821 1.000000
v 0.568953 0.466821 -1.000000
v -0.750311 0.003985 -1.000000
v -0.750311 0.003985 1.000000
v 0.568953 0.003985 -1.000000
v 0.568953 0.003985 1.000000
v -0.746855 0.066018 0.935396
v -0.746855 0.402304 0.935396
v -0.744780 0.402304 -0.935396
v -0.744780 0.066018 -0.935396
v 0.525243 0.066018 -0.935396
v 0.525243 0.402304 -0.935396
v 0.525243 0.066018 0.935396
v 0.525243 0.402304 0.935396
v -0.782930 0.066018 -1.000000
v -0.782930 0.066018 1.000000
v -0.782930 0.402304 1.000000
v -0.782930 0.402304 -1.000000
v -0.782930 0.466821 1.000000
v -0.782930 0.466821 -1.000000
v -0.782930 0.003985 -1.000000
v -0.782930 0.003985 1.000000
vt 0.581827 0.336346
vt 0.418173 0.341985
vt 0.418173 0.336346
vt 0.581827 0.500000
vt 0.581827 0.341985
vt 0.418173 0.500000
vt 0.418173 0.663654
vt 0.418173 0.663654
vt 0.418173 0.500000
vt 0.581827 0.500000
vt 0.581827 0.336346
vt 0.581827 0.500000
vt 0.254519 0.500000
vt 0.418173 0.663654
vt 0.581827 0.663654
vt 0.581827 0.663654
vt 0.581827 0.172691
vt 0.418173 0.172691
vt 0.418173 0.172691
vt 0.581827 0.827309
vt 0.581827 0.827309
vt 0.418173 0.827309
vt 0.418173 0.336346
vt 0.581827 0.336346
vt 0.619984 0.107227
vt 0.541837 0.026339
vt 0.619960 0.026316
vt 0.541861 0.107250
vt 0.460927 0.026364
vt 0.460951 0.107274
vt 0.380016 0.026388
vt 0.581827 0.172691
vt 0.418173 0.827309
vt 0.418173 0.500000
vt 0.581827 0.663654
vt 0.581827 0.172691
vt 0.581827 0.336346
vt 0.581827 0.827309
vt 0.581827 0.827309
vt 0.418173 0.827309
vt 0.418173 0.827309
vt 0.418173 0.336346
vt 0.745481 0.663654
vt 0.254519 0.663654
vt 0.254519 0.663654
vt 0.254519 0.500000
vt 0.380040 0.107298
vt 0.418173 0.172691
vt 0.581827 0.827309
vt 0.418173 0.336346
vt 0.418173 0.172691
vt 0.581827 0.172691
vt 0.418173 0.827309
vt 0.745481 0.500000
vt 0.745481 0.500000
vt 0.745481 0.663654
vn 0.9964 0.0000 -0.0853
vn 0.0000 -1.0000 0.0000
vn 0.0000 1.0000 0.0000
vn 1.0000 0.0000 0.0000
vn 0.0000 0.0000 -1.0000
vn 0.0000 0.0000 1.0000
vn 0.9986 0.0000 0.0534
vn -1.0000 0.0000 0.0000
usemtl Material.001
s off
f 4/1/1 20/2/1 3/3/1
f 4/1/2 22/4/2 19/5/2
f 7/6/3 23/7/3 5/8/3
f 5/8/4 15/9/4 7/6/4
f 8/10/5 10/11/5 12/12/5
f 13/13/2 15/9/2 16/14/2
f 8/10/4 11/15/4 6/16/4
f 2/17/6 26/18/6 1/19/6
f 6/16/6 9/20/6 2/21/6
f 1/22/6 16/14/6 5/8/6
f 7/6/5 13/23/5 3/3/5
f 3/3/5 28/24/5 4/1/5
f 19/25/5 21/26/5 20/27/5
f 22/28/4 23/29/4 21/26/4
f 24/30/6 17/31/6 23/29/6
f 1/19/7 18/32/7 2/17/7
f 1/22/3 23/7/3 17/33/3
f 6/16/2 22/4/2 8/10/2
f 3/3/3 21/34/3 7/6/3
f 2/21/2 24/35/2 6/16/2
f 27/36/8 30/37/8 28/24/8
f 2/21/6 29/38/6 27/39/6
f 1/22/6 32/40/6 14/41/6
f 13/23/5 25/42/5 3/3/5
f 4/1/5 30/37/5 10/11/5
f 9/43/3 11/15/3 12/12/3
f 4/1/1 19/5/1 20/2/1
f 4/1/2 8/10/2 22/4/2
f 7/6/3 21/34/3 23/7/3
f 5/8/4 16/14/4 15/9/4
f 8/10/5 4/1/5 10/11/5
f 16/14/2 14/44/2 13/13/2
f 14/44/2 32/45/2 13/13/2
f 32/45/2 31/46/2 13/13/2
f 8/10/4 12/12/4 11/15/4
f 2/17/6 27/36/6 26/18/6
f 6/16/6 11/15/6 9/20/6
f 1/22/6 14/41/6 16/14/6
f 7/6/5 15/9/5 13/23/5
f 3/3/5 25/42/5 28/24/5
f 19/25/5 22/28/5 21/26/5
f 22/28/4 24/30/4 23/29/4
f 24/30/6 18/47/6 17/31/6
f 1/19/7 17/48/7 18/32/7
f 1/22/3 5/8/3 23/7/3
f 6/16/2 24/35/2 22/4/2
f 3/3/3 20/2/3 21/34/3
f 2/21/2 18/49/2 24/35/2
f 28/24/8 25/42/8 27/36/8
f 25/42/8 31/50/8 26/18/8
f 27/36/8 25/42/8 26/18/8
f 31/50/8 32/51/8 26/18/8
f 27/36/8 29/52/8 30/37/8
f 2/21/6 9/20/6 29/38/6
f 1/22/6 26/53/6 32/40/6
f 13/23/5 31/50/5 25/42/5
f 4/1/5 28/24/5 30/37/5
f 12/12/3 10/54/3 9/43/3
f 10/54/3 30/55/3 9/43/3
f 30/55/3 29/56/3 9/43/3
