# Blender v2.80 (sub 75) OBJ File: ''
# www.blender.org
mtllib bush.mtl
o Bush_Icosphere
v 0.436886 0.448138 1.544856
v -1.143803 0.612200 0.900733
v -1.143803 0.612200 -0.900733
v 0.436886 0.612201 -1.525794
v 1.615224 0.612193 -0.212389
v 0.000000 1.796417 0.000000
v 1.376773 -0.049267 0.483932
v 1.376773 -0.077153 -0.587205
v 0.000000 0.077105 1.568145
v 0.850892 -0.086464 1.268477
v -1.376772 -0.063451 0.483932
v -0.850891 -0.113890 1.268477
v -0.850891 -0.046834 -1.270342
v -1.376772 -0.063451 -0.485797
v 0.850892 -0.163068 -1.270342
v 0.000000 -0.046919 -1.568329
v 1.272356 0.646339 0.788344
v -0.415515 0.748314 1.386092
v -1.502398 0.568122 0.314561
v -0.415515 0.748314 -1.386092
v 1.087819 0.748311 -1.068545
v 0.241560 1.441491 0.978074
v 0.946140 1.479358 0.063571
v -0.836189 1.441491 0.520477
v -0.836189 1.403717 -0.716694
v 0.336783 1.456770 -0.945737
v 1.041885 -0.425844 0.402519
v 1.041885 -0.425844 -0.407379
v 0.000892 -0.425844 1.222304
v 0.644261 -0.425844 0.995723
v -1.040102 -0.425844 0.402519
v -0.642477 -0.425844 0.995723
v -0.642477 -0.425844 -0.923907
v -1.040102 -0.425844 -0.330704
v 0.644261 -0.425844 -0.923907
v 0.000892 -0.425844 -1.150489
vt 0.959201 0.348205
vt 0.501683 0.348205
vt 0.832755 0.780499
vt 0.043641 0.350269
vt 0.501161 0.350269
vt 0.142186 0.804266
vt 0.040910 0.348175
vt 0.502495 0.341982
vt 0.143520 0.795979
vt 0.955945 0.348175
vt 0.498428 0.348175
vt 0.829499 0.780469
vt 0.041722 0.354397
vt 0.499239 0.354397
vt 0.140264 0.808394
vt 0.830311 0.786692
vt 0.499239 0.986456
vt 0.139453 0.802172
vt 0.498428 0.980234
vt 0.833567 0.774277
vt 0.502495 0.974041
vt 0.960012 0.341982
vt 0.832235 0.782563
vt 0.501163 0.982328
vt 0.142708 0.802202
vt 0.501683 0.980264
vt 0.270481 0.038370
vt 0.727998 0.038370
vt 0.727187 0.032147
vt 0.269669 0.032147
vt 0.273736 0.025955
vt 0.731254 0.025955
vt 0.272402 0.034242
vt 0.729922 0.034242
vt 0.730442 0.032178
vt 0.272924 0.032178
vt 0.729110 0.028019
vt 0.272924 0.032178
vt 0.729922 0.034242
vt 0.731254 0.025955
vt 0.729110 0.028019
vt 0.273736 0.025955
vt 0.727187 0.032147
vt 0.269669 0.032147
vt 0.727998 0.038370
vt 0.730442 0.032178
vt 0.270481 0.038370
vt 0.272402 0.034242
vn 0.4592 0.3606 0.8118
vn 0.6641 0.4251 0.6150
vn 0.4404 0.6308 0.6388
vn -0.6509 0.3728 0.6613
vn -0.4720 0.4257 0.7720
vn -0.5378 0.6658 0.5172
vn -0.8774 0.2945 -0.3787
vn -0.9410 0.3351 0.0460
vn -0.7655 0.5925 -0.2510
vn 0.0160 0.4270 -0.9041
vn -0.1529 0.4505 -0.8796
vn 0.0178 0.6865 -0.7269
vn 0.8456 0.4763 -0.2410
vn 0.6528 0.5245 -0.5465
vn 0.6485 0.7372 -0.1897
vn 0.4260 0.9012 -0.0793
vn 0.2994 0.8650 -0.4028
vn 0.2223 0.9708 -0.0897
vn 0.6359 0.7530 -0.1690
vn 0.6594 0.5304 -0.5327
vn 0.4908 0.7252 -0.4830
vn 0.5616 0.4647 -0.6845
vn 0.3638 0.4077 -0.8375
vn 0.3717 0.6606 -0.6523
vn -0.0373 0.8651 -0.5003
vn -0.2811 0.8564 -0.4331
vn -0.1020 0.9775 -0.1847
vn -0.0736 0.7341 -0.6751
vn -0.2429 0.4981 -0.8324
vn -0.3139 0.7434 -0.5906
vn -0.4697 0.3612 -0.8055
vn -0.6638 0.2953 -0.6872
vn -0.5482 0.6108 -0.5713
vn -0.4461 0.8500 -0.2801
vn -0.4566 0.8666 0.2014
vn -0.2797 0.9597 -0.0260
vn -0.7439 0.6104 -0.2719
vn -0.9317 0.3603 0.0467
vn -0.7134 0.6738 0.1924
vn -0.9239 0.3248 0.2024
vn -0.7457 0.3551 0.5638
vn -0.6790 0.6354 0.3678
vn -0.3033 0.8632 0.4035
vn -0.0656 0.8589 0.5079
vn -0.1141 0.9757 0.1870
vn -0.3723 0.7598 0.5331
vn -0.3097 0.5207 0.7956
vn -0.1424 0.7496 0.6464
vn -0.1063 0.4278 0.8976
vn 0.0809 0.3695 0.9257
vn 0.0705 0.6485 0.7579
vn 0.2497 0.8608 0.4434
vn 0.4102 0.9039 0.1213
vn 0.1997 0.9717 0.1264
vn 0.4671 0.6679 0.5794
vn 0.6849 0.4554 0.5688
vn 0.6328 0.7298 0.2586
vn 0.7798 0.3957 0.4852
vn 0.9107 0.3950 0.1205
vn 0.7227 0.6654 0.1872
vn 0.8147 -0.3281 -0.4782
vn 0.7484 0.1197 -0.6524
vn 0.9416 0.0933 -0.3234
vn 0.8756 -0.2831 -0.3914
vn 0.7028 -0.2904 -0.6494
vn 0.7861 0.1570 -0.5978
vn 0.5625 -0.2273 -0.7950
vn 0.4727 0.1282 -0.8719
vn 0.6590 0.2179 -0.7199
vn -0.1216 -0.1103 -0.9864
vn -0.2077 0.2550 -0.9444
vn -0.0256 0.2287 -0.9732
vn -0.2333 -0.1699 -0.9574
vn -0.4288 -0.1818 -0.8849
vn -0.3186 0.1954 -0.9275
vn -0.5831 -0.0860 -0.8078
vn -0.6727 0.2261 -0.7046
vn -0.4732 0.2914 -0.8314
vn -0.9496 -0.1444 -0.2782
vn -0.9756 0.2148 0.0445
vn -0.8881 0.2370 -0.3938
vn -0.9190 -0.3124 -0.2404
vn -0.9081 -0.3712 0.1939
vn -0.9935 0.0747 0.0862
vn -0.8518 -0.3085 0.4233
vn -0.7750 0.0784 0.6271
vn -0.9587 0.1239 0.2560
vn -0.5831 -0.0853 0.8079
vn -0.4831 0.2884 0.8267
vn -0.6700 0.2382 0.7032
vn -0.4126 -0.1768 0.8936
vn -0.2167 -0.1292 0.9677
vn -0.3470 0.2091 0.9143
vn -0.1268 -0.0461 0.9909
vn 0.0247 0.2397 0.9705
vn -0.1852 0.3148 0.9309
vn 0.6417 -0.1475 0.7526
vn 0.7414 0.2649 0.6166
vn 0.5378 0.1746 0.8248
vn 0.7134 -0.2953 0.6355
vn 0.8799 -0.3271 0.3446
vn 0.8504 0.1142 0.5136
vn 0.8843 -0.2971 0.3602
vn 0.9866 0.1101 0.1208
vn 0.8558 0.1340 0.4997
vn 0.3708 -0.3413 -0.8637
vn 0.1866 -0.3108 -0.9320
vn 0.3034 0.0180 -0.9527
vn -0.7205 -0.2336 -0.6530
vn -0.8773 -0.2849 -0.3863
vn -0.8130 0.0785 -0.5769
vn -0.8862 -0.2687 0.3774
vn -0.7309 -0.2223 0.6452
vn -0.8127 0.1056 0.5731
vn 0.1318 -0.3870 0.9126
vn 0.3604 -0.4335 0.8259
vn 0.2945 -0.1060 0.9498
vn 0.8455 -0.4864 0.2202
vn 0.8316 -0.5163 -0.2047
vn 0.9922 -0.1174 -0.0416
vn 0.5669 -0.5296 0.6310
vn 0.6571 -0.6973 0.2864
vn 0.8192 -0.4659 0.3344
vn -0.3474 -0.4391 0.8286
vn -0.0865 -0.5745 0.8139
vn -0.1176 -0.3623 0.9246
vn -0.6452 -0.5162 0.5633
vn -0.6625 -0.6799 0.3143
vn -0.5148 -0.7263 0.4555
vn -0.8760 -0.4601 0.1445
vn -0.7702 -0.6308 -0.0943
vn -0.7151 -0.6889 0.1185
vn -0.2793 -0.5303 -0.8005
vn -0.1836 -0.6955 -0.6947
vn -0.2990 -0.7345 -0.6092
vn 0.7344 -0.6525 -0.1867
vn 0.4613 -0.8198 -0.3392
vn 0.5487 -0.6487 -0.5274
vn 0.3147 -0.5171 0.7960
vn 0.1910 -0.6588 0.7277
vn 0.3144 -0.7111 0.6289
vn 0.3245 -0.6036 -0.7283
vn 0.0660 -0.7464 -0.6622
vn 0.0884 -0.5469 -0.8325
vn 0.7854 -0.5476 0.2888
vn 0.6807 -0.7271 -0.0890
vn 0.8409 -0.5001 -0.2069
vn -0.7389 -0.5143 -0.4353
vn -0.5763 -0.6724 -0.4644
vn -0.6257 -0.7252 -0.2874
vn 0.6710 -0.4796 0.5655
vn 0.5411 -0.6951 0.4733
vn 0.6869 -0.6476 0.3296
vn -0.3018 -0.5535 0.7763
vn -0.3035 -0.7410 0.5990
vn -0.1822 -0.6898 0.7007
vn -0.5519 -0.5555 0.6219
vn -0.7948 -0.5049 0.3368
vn -0.6479 -0.7129 0.2684
vn -0.7714 -0.5727 0.2773
vn -0.8371 -0.5051 -0.2101
vn -0.6930 -0.7139 -0.1006
vn -0.4140 -0.5672 -0.7120
vn -0.1763 -0.5406 -0.8226
vn -0.1632 -0.7394 -0.6532
vn 0.7169 -0.5159 -0.4689
vn 0.5897 -0.7480 -0.3047
vn 0.5291 -0.7001 -0.4796
vn 0.3665 -0.4374 0.8212
vn 0.1250 -0.3615 0.9240
vn 0.1045 -0.5739 0.8122
vn 0.2443 -0.6771 -0.6942
vn 0.2441 -0.8413 -0.4823
vn 0.1413 -0.8094 -0.5700
vn 0.8986 -0.4217 0.1213
vn 0.7300 -0.6730 0.1189
vn 0.7866 -0.6090 -0.1019
vn -0.7707 -0.5672 -0.2905
vn -0.6023 -0.5021 -0.6205
vn -0.5250 -0.7173 -0.4581
usemtl Material.001
s off
f 1/1/1 17/2/2 22/3/3
f 2/4/4 18/5/5 24/6/6
f 3/7/7 19/8/8 25/9/9
f 4/10/10 20/11/11 26/12/12
f 5/13/13 21/14/14 23/15/15
f 23/15/16 26/16/17 6/17/18
f 23/15/19 21/14/20 26/16/21
f 21/14/22 4/10/23 26/16/24
f 26/12/25 25/18/26 6/19/27
f 26/12/28 20/11/29 25/18/30
f 20/11/31 3/7/32 25/18/33
f 25/9/34 24/20/35 6/21/36
f 25/9/37 19/8/38 24/20/39
f 19/8/40 2/22/41 24/20/42
f 24/6/43 22/23/44 6/24/45
f 24/6/46 18/5/47 22/23/48
f 18/5/49 1/1/50 22/23/51
f 22/3/52 23/25/53 6/26/54
f 22/3/55 17/2/56 23/25/57
f 17/2/58 5/13/59 23/25/60
f 8/27/61 21/14/62 5/13/63
f 8/27/64 15/28/65 21/14/66
f 15/28/67 4/10/68 21/14/69
f 16/29/70 20/11/71 4/10/72
f 16/29/73 13/30/74 20/11/75
f 13/30/76 3/7/77 20/11/78
f 14/31/79 19/8/80 3/7/81
f 14/31/82 11/32/83 19/8/84
f 11/32/85 2/22/86 19/8/87
f 12/33/88 18/5/89 2/4/90
f 12/33/91 9/34/92 18/5/93
f 9/34/94 1/1/95 18/5/96
f 10/35/97 17/2/98 1/1/99
f 10/35/100 7/36/101 17/2/102
f 7/36/103 5/13/104 17/2/105
f 15/28/106 16/29/107 4/10/108
f 13/30/109 14/31/110 3/7/111
f 11/32/112 12/37/113 2/22/114
f 9/34/115 10/35/116 1/1/117
f 7/36/118 8/27/119 5/13/120
f 10/35/121 27/38/122 7/36/123
f 12/33/124 29/39/125 9/34/126
f 12/37/127 31/40/128 32/41/129
f 11/32/130 34/42/131 31/40/132
f 13/30/133 36/43/134 33/44/135
f 8/27/136 35/45/137 15/28/138
f 10/35/139 29/39/140 30/46/141
f 15/28/142 36/43/143 16/29/144
f 7/36/145 28/47/146 8/27/147
f 14/31/148 33/44/149 34/42/150
f 10/35/151 30/46/152 27/38/153
f 12/33/154 32/48/155 29/39/156
f 12/37/157 11/32/158 31/40/159
f 11/32/160 14/31/161 34/42/162
f 13/30/163 16/29/164 36/43/165
f 8/27/166 28/47/167 35/45/168
f 10/35/169 9/34/170 29/39/171
f 15/28/172 35/45/173 36/43/174
f 7/36/175 27/38/176 28/47/177
f 14/31/178 13/30/179 33/44/180
