# Blender v2.80 (sub 75) OBJ File: 'goose1baked.blend'
# www.blender.org
mtllib goose.mtl
o goose_Cube
v -0.124575 0.493406 0.473103
v -1.246780 0.137788 0.297401
v -1.820931 0.115135 0.235619
v -0.715797 0.213114 0.328457
v 0.372997 1.640351 0.348340
v 0.381736 1.937868 0.276548
v -0.996608 0.548051 0.485711
v 0.083371 1.575867 0.419617
v 0.378991 1.548932 0.821578
v 2.435647 2.354801 0.112442
v 2.420247 2.444094 0.098628
v 1.853739 2.242100 0.205088
v 1.821991 2.373076 0.225835
v -0.282187 0.956818 1.592073
v 0.284919 1.446352 1.326627
v -0.633750 0.911859 0.991500
v -0.526814 0.772430 0.877921
v -0.525588 0.202612 1.650305
v 2.151304 2.467203 0.165611
v 2.067207 2.660035 0.157595
v 0.628547 1.682464 0.000000
v 2.448616 2.339009 0.000000
v 1.862337 2.186034 0.000000
v 1.662522 2.460818 0.000000
v -1.627188 0.368718 0.000000
v 2.151304 2.467203 0.000000
v -0.124575 0.493407 -0.473103
v -1.246780 0.137788 -0.297401
v -1.820931 0.115135 -0.235619
v -1.903072 -0.048487 -0.000000
v -0.715797 0.213115 -0.328457
v -0.484868 0.075428 0.000000
v 0.372997 1.640351 -0.348340
v 0.381736 1.937868 -0.276547
v -0.889053 1.089578 0.000000
v -0.996608 0.548051 -0.485711
v 0.083371 1.575867 -0.419617
v 0.373973 0.593788 0.000000
v 0.378991 1.548932 -0.821577
v 0.623445 2.217585 0.000000
v 0.256844 1.976315 0.000000
v -0.082375 1.692792 0.000000
v 2.435647 2.354801 -0.112441
v 2.420247 2.444094 -0.098627
v 1.853739 2.242100 -0.205087
v 1.821991 2.373076 -0.225835
v 2.846903 2.319900 0.000000
v 2.829096 2.328748 0.000000
v 2.388675 2.500777 0.000000
v -0.282187 0.956819 -1.592073
v 0.284919 1.446352 -1.326627
v -0.633750 0.911860 -0.991500
v -0.526814 0.772430 -0.877920
v -0.525588 0.202613 -1.650305
v 1.975202 2.298616 0.000000
v 2.151304 2.467203 -0.165610
v 2.067207 2.660035 -0.157594
v 1.984734 2.728432 0.000000
v 2.125018 2.712647 0.000000
vt 0.502120 0.540712
vt 0.446313 0.677875
vt 0.507216 0.794022
vt 0.180937 0.295167
vt 0.096809 0.528145
vt 0.288363 0.518704
vt 0.766633 0.097508
vt 0.748127 0.145398
vt 0.785886 0.100313
vt 0.748127 0.145398
vt 0.639117 0.507769
vt 0.992669 0.716909
vt 0.955499 0.673210
vt 0.460916 0.760360
vt 0.410926 0.476579
vt 0.437500 0.546143
vt 0.389807 0.320217
vt 0.254392 0.234726
vt 0.826070 0.409307
vt 0.869681 0.614380
vt 0.923180 0.592747
vt 0.659783 0.231370
vt 0.689189 0.015690
vt 0.591582 0.027583
vt 0.320290 0.604408
vt 0.376722 0.674578
vt 0.381362 0.592167
vt 0.382865 0.509384
vt 0.930541 0.409740
vt 0.953439 0.643309
vt 0.997009 0.666163
vt 0.760803 0.493712
vt 0.816732 0.509500
vt 0.771393 0.190874
vt 0.288216 0.873067
vt 0.343109 0.860437
vt 0.632266 0.805929
vt 0.710142 0.984685
vt 0.710533 0.975439
vt 0.583453 0.251872
vt 0.433284 0.177867
vt 0.420880 0.326336
vt 0.354169 0.127386
vt 0.380750 0.041284
vt 0.338742 0.069670
vt 0.910573 0.228089
vt 0.829861 0.174511
vt 0.863712 0.297194
vt 0.062187 0.335428
vt 0.016786 0.250084
vt 0.748260 0.210856
vt 0.304097 0.942839
vt 0.341666 0.938889
vt 0.670774 0.446182
vt 0.670774 0.385676
vt 0.648170 0.396451
vt 0.598608 0.849669
vt 0.710533 0.757503
vt 0.663507 0.781003
vt 0.334886 0.958716
vt 0.767652 0.716220
vt 0.767652 0.595665
vt 0.704213 0.679960
vt 0.910573 0.062199
vt 0.854050 0.014417
vt 0.507216 0.397878
vt 0.812819 0.565872
vt 0.923180 0.360630
vt 0.997009 0.365045
vt 0.195985 0.557858
vt 0.292758 0.570738
vt 0.644563 0.324549
vt 0.906479 0.334794
vt 0.706327 0.151473
vt 0.639492 0.448955
vt 0.777717 0.183804
vt 0.485299 0.040534
vt 0.446313 0.677875
vt 0.180937 0.295167
vt 0.288363 0.518704
vt 0.096809 0.528145
vt 0.766633 0.097508
vt 0.748127 0.145398
vt 0.706327 0.151473
vt 0.785886 0.100313
vt 0.992669 0.716909
vt 0.460916 0.760360
vt 0.410926 0.476579
vt 0.437500 0.546143
vt 0.254392 0.234726
vt 0.923180 0.592747
vt 0.659783 0.231370
vt 0.591582 0.027583
vt 0.689189 0.015690
vt 0.320290 0.604408
vt 0.997009 0.666163
vt 0.760803 0.493712
vt 0.771393 0.190874
vt 0.816732 0.509500
vt 0.288216 0.873067
vt 0.632266 0.805929
vt 0.583453 0.251872
vt 0.420880 0.326336
vt 0.433284 0.177867
vt 0.338742 0.069670
vt 0.910573 0.228089
vt 0.829861 0.174511
vt 0.062187 0.335428
vt 0.016786 0.250084
vt 0.748260 0.210856
vt 0.304097 0.942839
vt 0.670774 0.446182
vt 0.670774 0.385676
vt 0.663507 0.781003
vt 0.767652 0.716220
vt 0.704213 0.679960
vt 0.767652 0.595665
vt 0.910573 0.062199
vt 0.812819 0.565872
vt 0.923180 0.360630
vt 0.997009 0.365045
vt 0.292758 0.570738
vt 0.195985 0.557858
vt 0.644563 0.324549
vt 0.906479 0.334794
vt 0.485299 0.040534
vt 0.854050 0.014417
vn 0.2942 -0.9557 -0.0000
vn -0.1901 -0.5397 0.8201
vn -0.8000 -0.5999 0.0000
vn -0.7677 0.5828 0.2662
vn 0.5716 0.3140 0.7581
vn -0.4474 0.8005 0.3987
vn 0.3747 0.5460 0.7493
vn 0.3039 -0.4300 0.8501
vn -0.0061 -0.6250 0.7806
vn 0.1890 -0.9820 -0.0000
vn -0.2101 -0.9777 -0.0000
vn 0.6605 -0.7508 -0.0000
vn -0.6484 0.0293 0.7607
vn 0.4475 -0.6526 0.6115
vn 0.0936 -0.7039 0.7041
vn -0.6672 0.7449 0.0000
vn -0.5330 0.0451 0.8449
vn 0.8537 -0.5208 -0.0000
vn 0.6507 -0.7593 0.0000
vn 0.5869 0.0465 0.8083
vn 0.8264 0.4626 0.3211
vn -0.3034 0.6014 0.7391
vn -0.3175 0.9483 0.0000
vn -0.6038 0.7971 0.0000
vn -0.6281 0.7782 0.0000
vn 0.5416 -0.8406 -0.0000
vn 0.3980 -0.5838 0.7077
vn -0.1038 0.2990 0.9486
vn -0.4154 0.9097 0.0000
vn 0.9801 -0.1983 0.0000
vn 0.4518 0.8921 0.0000
vn 0.6214 -0.7715 0.1369
vn 0.1940 0.1241 0.9731
vn 0.0217 -0.7339 0.6789
vn -0.6551 0.7555 0.0000
vn 0.0410 0.6460 0.7623
vn -0.3629 0.9318 0.0000
vn 0.5039 0.8638 -0.0000
vn 0.4122 0.9111 -0.0000
vn -0.1903 -0.5391 -0.8204
vn -0.7677 0.5828 -0.2662
vn -0.4474 0.8005 -0.3987
vn 0.5716 0.3140 -0.7581
vn 0.3747 0.5460 -0.7493
vn 0.3039 -0.4300 -0.8501
vn 0.0410 0.6460 -0.7623
vn -0.0061 -0.6250 -0.7806
vn -0.6484 0.0293 -0.7607
vn 0.4475 -0.6526 -0.6115
vn 0.0924 -0.7042 -0.7039
vn -0.5330 0.0451 -0.8449
vn 0.5869 0.0465 -0.8083
vn 0.8264 0.4626 -0.3211
vn -0.3034 0.6014 -0.7391
vn 0.3980 -0.5838 -0.7077
vn -0.1038 0.2990 -0.9486
vn 0.6214 -0.7715 -0.1369
vn 0.0216 -0.7339 -0.6789
vn 0.1940 0.1239 -0.9731
usemtl vcolor
s 1
f 32/1/1 2/2/2 30/3/3
f 16/4/4 15/5/5 8/6/6
f 11/7/7 19/8/8 10/9/9
f 10/9/9 26/10/10 22/11/11
f 19/12/8 55/13/12 26/10/10
f 2/2/2 3/14/13 30/3/3
f 1/15/14 4/16/15 32/1/1
f 35/17/16 7/18/17 8/6/6
f 38/19/18 21/20/19 5/21/20
f 1/22/14 5/23/20 9/24/21
f 6/25/22 40/26/23 41/27/24
f 42/28/25 8/6/6 6/25/22
f 21/29/19 23/30/26 12/31/27
f 6/32/22 5/33/20 12/34/27
f 6/25/22 13/35/28 24/36/29
f 10/37/9 47/38/30 48/39/31
f 8/6/6 7/18/17 16/4/4
f 17/40/32 14/41/33 18/42/34
f 25/43/35 30/44/3 3/45/13
f 2/46/2 7/47/17 25/48/35
f 7/18/17 35/17/16 25/43/35
f 16/4/4 14/49/33 15/5/5
f 16/4/4 7/18/17 18/50/34
f 12/31/27 23/30/26 55/13/12
f 13/51/28 12/34/27 19/8/8
f 13/35/28 20/52/36 58/53/37
f 20/54/36 11/55/7 49/56/38
f 22/57/11 47/38/30 10/37/9
f 48/39/31 49/58/38 11/59/7
f 59/60/39 58/53/37 20/52/36
f 7/61/17 1/62/14 17/63/32
f 7/47/17 4/64/15 1/65/14
f 1/15/14 32/1/1 38/66/18
f 5/33/20 6/32/22 8/67/6
f 35/17/16 8/6/6 42/28/25
f 38/19/18 5/21/20 1/68/14
f 1/22/14 9/24/21 17/40/32
f 42/28/25 6/25/22 41/27/24
f 21/29/19 12/31/27 5/69/20
f 6/32/22 12/34/27 13/51/28
f 6/25/22 24/36/29 40/26/23
f 10/37/9 48/39/31 11/59/7
f 8/6/6 9/70/21 5/71/20
f 9/70/21 8/6/6 15/5/5
f 17/40/32 18/42/34 7/72/17
f 2/46/2 25/48/35 3/73/13
f 16/4/4 18/50/34 14/49/33
f 13/51/28 19/8/8 20/74/36
f 13/35/28 58/53/37 24/36/29
f 20/54/36 49/56/38 59/75/39
f 55/76/12 19/12/8 12/31/27
f 17/40/32 15/77/5 14/41/33
f 28/78/40 32/1/1 30/3/3
f 52/79/41 37/80/42 51/81/43
f 44/82/44 56/83/45 57/84/46
f 43/85/47 26/10/10 56/86/45
f 56/86/45 26/10/10 55/13/12
f 28/78/40 30/3/3 29/87/48
f 27/88/49 32/1/1 31/89/50
f 35/17/16 37/80/42 36/90/51
f 38/19/18 33/91/52 21/20/19
f 27/92/49 39/93/53 33/94/52
f 34/95/54 41/27/24 40/26/23
f 42/28/25 34/95/54 37/80/42
f 21/29/19 45/96/55 23/30/26
f 34/97/54 45/98/55 33/99/52
f 34/95/54 24/36/29 46/100/56
f 43/101/47 48/39/31 47/38/30
f 37/80/42 52/79/41 36/90/51
f 53/102/57 54/103/58 50/104/59
f 25/43/35 29/105/48 30/44/3
f 28/106/40 25/48/35 36/107/51
f 36/90/51 25/43/35 35/17/16
f 52/79/41 51/81/43 50/108/59
f 52/79/41 54/109/58 36/90/51
f 45/96/55 55/13/12 23/30/26
f 46/110/56 56/83/45 45/98/55
f 46/100/56 58/53/37 57/111/46
f 57/112/46 49/56/38 44/113/44
f 22/57/11 43/101/47 47/38/30
f 48/39/31 44/114/44 49/58/38
f 59/60/39 57/111/46 58/53/37
f 36/115/51 53/116/57 27/117/49
f 36/107/51 31/118/50 28/106/40
f 27/88/49 38/66/18 32/1/1
f 33/99/52 37/119/42 34/97/54
f 35/17/16 42/28/25 37/80/42
f 38/19/18 27/120/49 33/91/52
f 27/92/49 53/102/57 39/93/53
f 42/28/25 41/27/24 34/95/54
f 21/29/19 33/121/52 45/96/55
f 34/97/54 46/110/56 45/98/55
f 34/95/54 40/26/23 24/36/29
f 43/101/47 44/114/44 48/39/31
f 37/80/42 33/122/52 39/123/53
f 39/123/53 51/81/43 37/80/42
f 53/102/57 36/124/51 54/103/58
f 28/106/40 29/125/48 25/48/35
f 52/79/41 50/108/59 54/109/58
f 46/110/56 57/84/46 56/83/45
f 46/100/56 24/36/29 58/53/37
f 57/112/46 59/75/39 49/56/38
f 55/76/12 45/96/55 56/86/45
f 51/126/43 53/102/57 50/104/59
f 32/1/1 4/16/15 2/2/2
f 11/7/7 20/74/36 19/8/8
f 10/9/9 19/12/8 26/10/10
f 7/47/17 2/46/2 4/64/15
f 17/40/32 9/24/21 15/77/5
f 28/78/40 31/89/50 32/1/1
f 44/82/44 43/85/47 56/83/45
f 43/85/47 22/11/11 26/10/10
f 36/107/51 27/127/49 31/118/50
f 51/126/43 39/93/53 53/102/57
