# Blender v2.82 (sub 7) OBJ File: 'university.blend'
# www.blender.org
mtllib ground.mtl
o Ground.001_Grid.002
v 22.963076 0.000000 4.593322
v 41.333923 0.000000 4.593322
v 22.963076 0.000000 -4.592104
v 22.963076 0.000000 -13.777528
v 22.980593 -0.272714 -22.962679
v 22.991581 -0.419128 -32.147926
v 22.970507 -0.118000 -41.333679
v 41.333923 0.000000 -41.333794
vt 1.000000 0.444444
vt 0.777778 0.777778
vt 0.777778 0.666667
vt 0.777778 0.555556
vt 0.777778 0.444444
vt 1.000000 1.000000
vt 0.777778 1.000000
vt 0.777778 0.888889
vn 0.0296 0.9991 -0.0296
vn 0.0000 1.0000 0.0000
vn -0.0149 0.9999 0.0000
vn -0.0064 0.9994 0.0328
vn -0.0308 0.9994 -0.0160
usemtl Material.039
s off
f 2/1/1 5/2/1 4/3/1
f 3/4/2 1/5/2 2/1/2
f 2/1/3 8/6/3 5/2/3
f 8/6/4 7/7/4 6/8/4
f 8/6/5 6/8/5 5/2/5
f 4/3/2 3/4/2 2/1/2
o Ground.002_Grid.003
v 4.592230 0.000000 41.335022
v 41.333923 0.000000 41.335022
v 4.592230 0.000000 4.593322
v 13.777653 0.000000 4.593322
v 22.963076 0.000000 4.593322
v 41.333923 0.000000 4.593322
vt 1.000000 0.000000
vt 1.000000 0.444444
vt 0.777778 0.444444
vt 0.555556 0.444444
vt 0.555556 0.000000
vt 0.666667 0.444444
vn 0.0000 1.0000 0.0000
usemtl Material.039
s off
f 10/9/6 14/10/6 13/11/6
f 11/12/6 9/13/6 12/14/6
f 9/13/6 10/9/6 13/11/6
f 12/14/6 9/13/6 13/11/6
o Ground.003_Grid.004
v -41.334896 0.000000 41.335022
v 4.592230 0.000000 41.335022
v -41.334896 0.055869 4.593322
v -32.149471 0.194327 4.593324
v -22.964046 0.148635 4.593322
v -13.778621 0.015592 4.593322
v -4.593196 0.000000 4.593322
v 4.592230 0.000000 4.593322
vt 0.555556 0.000000
vt 0.444444 0.444444
vt 0.333333 0.444444
vt 0.000000 0.444444
vt 0.000000 0.000000
vt 0.111111 0.444444
vt 0.222222 0.444444
vt 0.555556 0.444444
vn 0.0017 1.0000 -0.0004
vn -0.0151 0.9999 0.0015
vn 0.0000 1.0000 0.0004
vn 0.0050 1.0000 0.0065
vn 0.0000 1.0000 0.0000
vn 0.0145 0.9998 0.0113
usemtl Material.039
s off
f 16/15/7 21/16/7 20/17/7
f 17/18/8 15/19/8 18/20/8
f 15/19/9 16/15/9 20/17/9
f 18/20/10 15/19/10 19/21/10
f 16/15/11 22/22/11 21/16/11
f 20/17/12 19/21/12 15/19/12
o Ground.004_Grid.005
v -4.593196 0.000000 4.593322
v 4.592230 0.000000 4.593322
v 13.777653 0.000000 4.593322
v 22.963076 0.000000 4.593322
v -4.594371 -0.012024 -4.593657
v 4.592230 0.000000 -4.592104
v 13.777653 0.000000 -4.592104
v 22.963076 0.000000 -4.592104
v -4.871747 -0.619378 -14.377532
v 4.596899 -0.708791 -13.941445
v 13.824739 -0.549794 -13.777505
v 22.963076 0.000000 -13.777528
vt 0.444444 0.444444
vt 0.555556 0.555556
vt 0.444444 0.555556
vt 0.666667 0.444444
vt 0.555556 0.444444
vt 0.777778 0.444444
vt 0.666667 0.555556
vt 0.555556 0.666667
vt 0.444444 0.666667
vt 0.666667 0.666667
vt 0.777778 0.555556
vt 0.777778 0.666667
vn -0.0013 1.0000 -0.0013
vn 0.0000 1.0000 0.0000
vn 0.0123 0.9980 -0.0623
vn -0.0158 0.9970 -0.0756
vn 0.0000 0.9982 -0.0597
vn -0.0013 0.9971 -0.0756
vn -0.0601 0.9982 0.0000
usemtl Material.039
s off
f 23/23/13 28/24/13 27/25/13
f 25/26/14 28/24/14 24/27/14
f 26/28/14 29/29/14 25/26/14
f 27/25/15 32/30/15 31/31/15
f 28/24/16 33/32/16 32/30/16
f 30/33/17 33/32/17 29/29/17
f 23/23/14 24/27/14 28/24/14
f 25/26/14 29/29/14 28/24/14
f 26/28/14 30/33/14 29/29/14
f 27/25/18 28/24/18 32/30/18
f 28/24/17 29/29/17 33/32/17
f 30/33/19 34/34/19 33/32/19
o Ground.005_Grid.006
v -41.334896 0.055869 4.593322
v -32.149471 0.194327 4.593324
v -22.964046 0.148635 4.593322
v -13.778621 0.015592 4.593322
v -4.593196 0.000000 4.593322
v -41.336475 0.645581 -4.590856
v -32.188381 0.763223 -4.591330
v -23.053627 -0.152827 -4.661182
v -13.811407 -0.128545 -4.632010
v -4.594371 -0.012024 -4.593657
v -41.424839 0.543225 -13.846630
v -32.221954 -1.139644 -14.296008
v -23.179386 -1.011549 -14.720328
v -14.213668 -1.202106 -14.692962
v -4.871747 -0.619378 -14.377532
vt 0.000000 0.444444
vt 0.111111 0.555556
vt 0.000000 0.555556
vt 0.111111 0.444444
vt 0.222222 0.555556
vt 0.222222 0.444444
vt 0.333333 0.555556
vt 0.333333 0.444444
vt 0.444444 0.555556
vt 0.000000 0.666667
vt 0.111111 0.666667
vt 0.333333 0.666667
vt 0.222222 0.666667
vt 0.444444 0.666667
vt 0.444444 0.444444
vn -0.0128 0.9979 0.0641
vn 0.1001 0.9931 0.0611
vn -0.0025 0.9995 -0.0325
vn -0.0126 0.9998 -0.0156
vn -0.0129 0.9999 -0.0109
vn 0.0965 0.9767 -0.1918
vn 0.0214 0.9961 -0.0853
vn -0.0584 0.9929 -0.1036
vn -0.0150 0.9980 0.0619
vn 0.0050 0.9995 -0.0326
vn 0.0145 0.9998 -0.0157
vn 0.0017 1.0000 -0.0013
vn 0.1676 0.9673 -0.1903
vn -0.0181 0.9962 -0.0848
vn -0.0023 0.9944 -0.1060
vn -0.0124 0.9980 -0.0616
usemtl Material.039
s off
f 35/35/20 41/36/20 40/37/20
f 36/38/21 42/39/21 41/36/21
f 37/40/22 43/41/22 42/39/22
f 38/42/23 44/43/23 43/41/23
f 41/36/24 45/44/24 40/37/24
f 42/39/25 46/45/25 41/36/25
f 42/39/26 48/46/26 47/47/26
f 43/41/27 49/48/27 48/46/27
f 35/35/28 36/38/28 41/36/28
f 36/38/29 37/40/29 42/39/29
f 37/40/30 38/42/30 43/41/30
f 38/42/31 39/49/31 44/43/31
f 41/36/32 46/45/32 45/44/32
f 42/39/33 47/47/33 46/45/33
f 42/39/34 43/41/34 48/46/34
f 43/41/35 44/43/35 49/48/35
o Ground.006_Grid.007
v -4.871747 -0.619378 -14.377532
v 4.596899 -0.708791 -13.941445
v 13.824739 -0.549794 -13.777505
v 22.963076 0.000000 -13.777528
v -5.139572 -2.141125 -23.741882
v 4.591841 -1.150918 -23.109156
v 13.887585 -1.246633 -22.966911
v 22.980593 -0.272714 -22.962679
v -4.822650 -5.599648 -32.369587
v 4.690333 -1.816983 -32.178501
v 13.881339 -1.173769 -32.151512
v 22.991581 -0.419128 -32.147926
v -4.783623 -4.793739 -41.554302
v 4.969830 -2.298631 -41.397678
v 13.836547 -0.769226 -41.334610
v 22.970507 -0.118000 -41.333679
vt 0.444444 0.666667
vt 0.555556 0.777778
vt 0.444444 0.777778
vt 0.555556 0.666667
vt 0.666667 0.777778
vt 0.666667 0.666667
vt 0.777778 0.777778
vt 0.555556 0.888889
vt 0.444444 0.888889
vt 0.666667 0.888889
vt 0.777778 0.888889
vt 0.444444 1.000000
vt 0.555556 1.000000
vt 0.777778 1.000000
vt 0.666667 1.000000
vt 0.777778 0.666667
vn -0.0898 0.9835 -0.1572
vn 0.0110 0.9988 -0.0482
vn -0.1062 0.9914 -0.0759
vn -0.3383 0.8691 -0.3608
vn -0.0694 0.9949 -0.0738
vn -0.0826 0.9966 0.0080
vn -0.3697 0.9257 0.0797
vn -0.0696 0.9961 -0.0541
vn -0.0711 0.9965 0.0442
vn 0.0117 0.9988 -0.0482
vn -0.0158 0.9970 -0.0757
vn -0.0600 0.9978 -0.0297
vn -0.0962 0.9926 -0.0739
vn 0.0102 0.9999 0.0079
vn -0.1065 0.9942 -0.0160
vn -0.2465 0.9674 -0.0580
vn -0.1701 0.9844 0.0442
vn -0.0825 0.9960 0.0328
usemtl Material.039
s off
f 50/50/36 55/51/36 54/52/36
f 51/53/37 56/54/37 55/51/37
f 52/55/38 57/56/38 56/54/38
f 54/52/39 59/57/39 58/58/39
f 55/51/40 60/59/40 59/57/40
f 56/54/41 61/60/41 60/59/41
f 59/57/42 62/61/42 58/58/42
f 60/59/43 63/62/43 59/57/43
f 60/59/44 65/63/44 64/64/44
f 50/50/45 51/53/45 55/51/45
f 51/53/46 52/55/46 56/54/46
f 52/55/47 53/65/47 57/56/47
f 54/52/48 55/51/48 59/57/48
f 55/51/49 56/54/49 60/59/49
f 56/54/50 57/56/50 61/60/50
f 59/57/51 63/62/51 62/61/51
f 60/59/52 64/64/52 63/62/52
f 60/59/53 61/60/53 65/63/53
o Ground.007_Grid.008
v -41.424839 0.543225 -13.846630
v -32.221954 -1.139644 -14.296008
v -23.179386 -1.011549 -14.720328
v -14.213668 -1.202106 -14.692962
v -4.871747 -0.619378 -14.377532
v -41.540527 -3.244859 -22.942980
v -31.882036 -2.959450 -23.536922
v -23.394773 -2.716607 -23.674620
v -14.729356 -2.129749 -23.611792
v -5.139572 -2.141125 -23.741882
v -41.640175 -4.595497 -32.200985
v -32.156872 -3.843692 -32.003212
v -23.696384 -4.731611 -31.599966
v -14.695624 -4.868607 -32.102215
v -4.822650 -5.599648 -32.369587
v -41.618782 -3.932599 -41.464928
v -32.596527 -4.226096 -41.521889
v -23.636942 -5.044446 -41.453899
v -14.277617 -4.393963 -41.649246
v -4.783623 -4.793739 -41.554302
vt 0.111111 0.666667
vt 0.000000 0.777778
vt 0.000000 0.666667
vt 0.222222 0.666667
vt 0.111111 0.777778
vt 0.333333 0.777778
vt 0.222222 0.777778
vt 0.333333 0.666667
vt 0.444444 0.777778
vt 0.111111 0.888889
vt 0.000000 0.888889
vt 0.222222 0.888889
vt 0.333333 0.888889
vt 0.111111 1.000000
vt 0.000000 1.000000
vt 0.222222 1.000000
vt 0.444444 0.888889
vt 0.333333 1.000000
vt 0.444444 0.666667
vt 0.444444 1.000000
vn 0.1482 0.9123 -0.3818
vn -0.0230 0.9807 -0.1940
vn -0.0651 0.9806 -0.1852
vn -0.0002 0.9946 -0.1034
vn -0.0752 0.9868 -0.1432
vn 0.1088 0.9883 -0.1068
vn 0.0010 0.9692 -0.2464
vn -0.0030 0.9517 -0.3070
vn 0.0329 0.9969 0.0714
vn 0.0912 0.9949 -0.0442
vn 0.0134 0.9994 -0.0316
vn 0.0752 0.9958 0.0528
vn -0.0409 0.9800 -0.1945
vn -0.0311 0.9820 -0.1862
vn 0.0215 0.9943 -0.1047
vn -0.0561 0.9857 -0.1586
vn -0.0357 0.9941 -0.1027
vn -0.0317 0.9690 -0.2452
vn -0.0621 0.9498 -0.3066
vn 0.0587 0.9273 -0.3696
vn -0.0782 0.9963 -0.0364
vn 0.1058 0.9939 -0.0309
vn -0.0683 0.9966 0.0466
vn 0.0410 0.9953 0.0875
usemtl Material.039
s off
f 67/66/54 71/67/54 66/68/54
f 68/69/55 72/70/55 67/66/55
f 68/69/56 74/71/56 73/72/56
f 69/73/57 75/74/57 74/71/57
f 71/67/58 77/75/58 76/76/58
f 72/70/59 78/77/59 77/75/59
f 73/72/60 79/78/60 78/77/60
f 75/74/61 79/78/61 74/71/61
f 76/76/62 82/79/62 81/80/62
f 77/75/63 83/81/63 82/79/63
f 79/78/64 83/81/64 78/77/64
f 80/82/65 84/83/65 79/78/65
f 67/66/66 72/70/66 71/67/66
f 68/69/67 73/72/67 72/70/67
f 68/69/68 69/73/68 74/71/68
f 69/73/69 70/84/69 75/74/69
f 71/67/70 72/70/70 77/75/70
f 72/70/71 73/72/71 78/77/71
f 73/72/72 74/71/72 79/78/72
f 75/74/73 80/82/73 79/78/73
f 76/76/74 77/75/74 82/79/74
f 77/75/75 78/77/75 83/81/75
f 79/78/76 84/83/76 83/81/76
f 80/82/77 85/85/77 84/83/77
