# Blender v2.82 (sub 7) OBJ File: 'university.blend'
# www.blender.org
mtllib ground.mtl
o Ground.001_Grid.002
v -9.187281 0.029500 33.869968
v 9.183567 0.029500 33.869968
v -9.179850 -0.088500 -33.869911
v 9.183567 0.029500 -33.870026
vt 1.000000 0.444444
vt 0.777778 1.000000
vt 0.777778 0.444444
vt 1.000000 1.000000
vn 0.0000 1.0000 -0.0017
vn -0.0064 1.0000 0.0000
usemtl Material.039
s off
f 2/1/1 3/2/1 1/3/1
f 2/1/2 4/4/2 3/2/2
o Ground.002_Grid.003
v -18.370846 0.000000 18.370850
v 18.370846 0.000000 18.370850
v -18.370846 0.000000 -18.370850
v 18.370846 0.000000 -18.370850
vt 1.000000 0.000000
vt 0.555556 0.444444
vt 0.555556 0.000000
vt 1.000000 0.444444
vn 0.0000 1.0000 0.0000
usemtl Material.039
s off
f 6/5/3 7/6/3 5/7/3
f 6/5/3 8/8/3 7/6/3
o Ground.003_Grid.004
v -25.174850 -0.013967 18.370850
v 25.174850 -0.013967 18.370850
v -25.174850 0.041902 -18.370850
v 25.174850 -0.013967 -18.370850
vt 0.000000 0.000000
vt 0.555556 0.444444
vt 0.000000 0.444444
vt 0.555556 0.000000
vn 0.0011 1.0000 0.0015
vn 0.0000 1.0000 0.0000
usemtl Material.039
s off
f 9/9/4 12/10/4 11/11/4
f 9/9/5 10/12/5 12/10/5
o Ground.004_Grid.005
v -13.759140 0.157499 9.249212
v -4.573713 0.157499 9.249212
v 4.611710 0.157499 9.249212
v 13.797132 0.157499 9.249212
v -13.760314 0.145475 0.062233
v -4.573713 0.157499 0.063787
v 4.611710 0.157499 0.063787
v 13.797132 0.157499 0.063787
v -14.037691 -0.461879 -9.721642
v -4.569044 -0.551292 -9.285555
v 4.658796 -0.392295 -9.121614
v 13.797132 0.157499 -9.121637
vt 0.444444 0.444444
vt 0.555556 0.555556
vt 0.444444 0.555556
vt 0.666667 0.444444
vt 0.555556 0.444444
vt 0.777778 0.444444
vt 0.666667 0.555556
vt 0.555556 0.666667
vt 0.444444 0.666667
vt 0.666667 0.666667
vt 0.777778 0.555556
vt 0.777778 0.666667
vn -0.0013 1.0000 -0.0013
vn 0.0000 1.0000 0.0000
vn 0.0123 0.9980 -0.0623
vn -0.0158 0.9970 -0.0756
vn 0.0000 0.9982 -0.0597
vn -0.0013 0.9971 -0.0756
vn -0.0601 0.9982 0.0000
usemtl Material.039
s off
f 13/13/6 18/14/6 17/15/6
f 15/16/7 18/14/7 14/17/7
f 16/18/7 19/19/7 15/16/7
f 17/15/8 22/20/8 21/21/8
f 18/14/9 23/22/9 22/20/9
f 20/23/10 23/22/10 19/19/10
f 13/13/7 14/17/7 18/14/7
f 15/16/7 19/19/7 18/14/7
f 16/18/7 20/23/7 19/19/7
f 17/15/11 18/14/11 22/20/11
f 18/14/10 19/19/10 23/22/10
f 20/23/12 24/24/12 23/22/12
o Ground.005_Grid.006
v -9.068483 0.477768 9.470844
v 0.116942 0.344726 9.470844
v 9.302366 0.329134 9.470844
v -9.158064 0.176306 0.216341
v 0.084156 0.200589 0.245512
v 9.301191 0.317109 0.283865
v -9.283823 -0.682415 -9.842806
v -0.318105 -0.872973 -9.815439
v 9.023815 -0.290244 -9.500010
vt 0.222222 0.444444
vt 0.333333 0.555556
vt 0.222222 0.555556
vt 0.333333 0.444444
vt 0.444444 0.555556
vt 0.333333 0.666667
vt 0.222222 0.666667
vt 0.444444 0.666667
vt 0.444444 0.444444
vn -0.0025 0.9995 -0.0325
vn -0.0126 0.9998 -0.0156
vn 0.0214 0.9961 -0.0853
vn -0.0584 0.9929 -0.1036
vn 0.0145 0.9998 -0.0157
vn 0.0017 1.0000 -0.0013
vn -0.0023 0.9944 -0.1060
vn -0.0124 0.9980 -0.0616
usemtl Material.039
s off
f 25/25/13 29/26/13 28/27/13
f 26/28/14 30/29/14 29/26/14
f 28/27/15 32/30/15 31/31/15
f 29/26/16 33/32/16 32/30/16
f 25/25/17 26/28/17 29/26/17
f 26/28/18 27/33/18 30/29/18
f 28/27/19 29/26/19 32/30/19
f 29/26/20 30/29/20 33/32/20
o Ground.006_Grid.007
v -12.057112 1.022525 13.337598
v -2.588465 0.933112 13.773686
v 6.639375 1.092109 13.937627
v 15.777711 1.641903 13.937604
v -12.324936 -0.499222 3.973248
v -2.593524 0.490984 4.605975
v 6.702220 0.395269 4.748219
v -12.008014 -3.957746 -4.654456
v -2.495031 -0.175081 -4.463370
v 6.695974 0.468134 -4.436381
v -11.968987 -3.151837 -13.839171
v -2.215535 -0.656728 -13.682548
v 6.651182 0.872676 -13.619479
v 15.785142 1.523903 -13.618548
vt 0.444444 0.666667
vt 0.555556 0.777778
vt 0.444444 0.777778
vt 0.555556 0.666667
vt 0.666667 0.777778
vt 0.666667 0.888889
vt 0.777778 0.666667
vt 0.555556 0.888889
vt 0.444444 0.888889
vt 0.444444 1.000000
vt 0.555556 1.000000
vt 0.666667 0.666667
vt 0.777778 1.000000
vt 0.666667 1.000000
vn -0.0898 0.9835 -0.1572
vn 0.0110 0.9988 -0.0482
vn -0.1440 0.9895 0.0079
vn -0.3383 0.8691 -0.3608
vn -0.0694 0.9949 -0.0738
vn -0.3697 0.9257 0.0797
vn -0.0696 0.9961 -0.0541
vn 0.0117 0.9988 -0.0482
vn -0.0158 0.9970 -0.0757
vn -0.0599 0.9953 -0.0759
vn -0.1196 0.9928 -0.0043
vn -0.0711 0.9965 0.0442
vn -0.0962 0.9926 -0.0739
vn 0.0102 0.9999 0.0079
vn -0.2465 0.9674 -0.0580
vn -0.1701 0.9844 0.0442
usemtl Material.039
s off
f 34/34/21 39/35/21 38/36/21
f 35/37/22 40/38/22 39/35/22
f 43/39/23 40/38/23 37/40/23
f 38/36/24 42/41/24 41/42/24
f 39/35/25 43/39/25 42/41/25
f 42/41/26 44/43/26 41/42/26
f 43/39/27 45/44/27 42/41/27
f 34/34/28 35/37/28 39/35/28
f 35/37/29 36/45/29 40/38/29
f 36/45/30 37/40/30 40/38/30
f 37/40/31 47/46/31 43/39/31
f 47/46/32 46/47/32 43/39/32
f 38/36/33 39/35/33 42/41/33
f 39/35/34 40/38/34 43/39/34
f 42/41/35 45/44/35 44/43/35
f 43/39/36 46/47/36 45/44/36
o Ground.007_Grid.008
v -12.403544 -3.152066 13.188388
v 1.612325 -3.240257 13.530332
v 10.093537 -3.860712 13.935082
v -12.240649 0.590253 4.494319
v 1.261075 0.174306 4.379813
v 10.217137 0.025362 4.488620
v -11.568271 2.362234 -17.628517
v 1.895970 1.739846 -17.630783
v 10.871680 1.354299 -17.641060
v 10.551011 0.791917 -0.355241
v 1.592191 1.334928 -0.450707
v -11.882461 1.879891 -0.310246
vt 0.000000 0.888889
vt 0.111111 1.000000
vt 0.000000 1.000000
vt 0.111111 0.888889
vt 0.222222 1.000000
vt 0.222222 1.000000
vt 0.111111 1.000000
vt 0.111111 1.000000
vt 0.000000 1.000000
vt 0.000000 1.000000
vt 0.222222 0.888889
vt 0.222222 1.000000
vn 0.0316 0.9178 0.3957
vn 0.0113 0.9370 0.3492
vn 0.0602 0.9979 0.0246
vn 0.0407 0.9988 0.0286
vn 0.0319 0.9647 0.2613
vn 0.0133 0.9720 0.2345
vn -0.0026 0.9369 0.3497
vn 0.0494 0.9234 0.3805
vn 0.0429 0.9985 0.0333
vn 0.0462 0.9986 0.0244
vn 0.0417 0.9708 0.2361
vn 0.0580 0.9854 0.1599
usemtl Material.039
s off
f 48/48/37 52/49/37 51/50/37
f 49/51/38 53/52/38 52/49/38
f 57/53/39 55/54/39 58/55/39
f 58/55/40 54/56/40 59/57/40
f 52/49/41 59/57/41 51/50/41
f 53/52/42 58/55/42 52/49/42
f 48/48/43 49/51/43 52/49/43
f 49/51/44 50/58/44 53/52/44
f 57/53/45 56/59/45 55/54/45
f 58/55/46 55/54/46 54/56/46
f 52/49/47 58/55/47 59/57/47
f 53/52/48 57/53/48 58/55/48
o Ground.015_Grid.009
v -8.872033 2.009640 8.712534
v 0.093685 1.819083 8.739901
v 9.435605 2.401811 9.055330
v -9.086823 0.747922 -0.327812
v -0.422003 0.891440 -0.178928
v 9.167781 0.880064 -0.309019
v -9.372415 -3.196355 -8.154507
v -0.428502 -2.975145 -8.600775
v 9.484704 -2.578460 -8.936724
vt 0.222222 0.666667
vt 0.333333 0.777778
vt 0.222222 0.777778
vt 0.333333 0.666667
vt 0.444444 0.777778
vt 0.333333 0.888889
vt 0.222222 0.888889
vt 0.444444 0.666667
vt 0.444444 0.888889
vn -0.0140 0.9903 -0.1379
vn -0.0002 0.9946 -0.1034
vn -0.0444 0.8928 -0.4483
vn -0.0046 0.9088 -0.4172
vn 0.0215 0.9943 -0.1047
vn -0.0561 0.9857 -0.1586
vn -0.0079 0.9088 -0.4172
vn -0.0497 0.9264 -0.3732
usemtl Material.039
s off
f 60/60/49 64/61/49 63/62/49
f 61/63/50 65/64/50 64/61/50
f 63/62/51 67/65/51 66/66/51
f 65/64/52 67/65/52 64/61/52
f 60/60/53 61/63/53 64/61/53
f 61/63/54 62/67/54 65/64/54
f 63/62/55 64/61/55 67/65/55
f 65/64/56 68/68/56 67/65/56
o Ground.016_Grid.010
v -12.014374 3.562298 9.381771
v 1.611088 1.879429 8.932392
v 10.653656 2.007524 8.508072
v -12.130062 -0.225785 0.285421
v 1.959297 0.297038 -0.347031
v 10.438866 0.745807 -0.532274
v -12.343807 -2.489825 -9.105663
v 1.672062 -2.578015 -8.763720
v 10.153275 -3.198471 -8.358969
vt 0.111111 0.666667
vt 0.000000 0.777778
vt 0.000000 0.666667
vt 0.222222 0.666667
vt 0.111111 0.777778
vt 0.111111 0.888889
vt 0.000000 0.888889
vt 0.222222 0.888889
vt 0.222222 0.777778
vn 0.1007 0.9180 -0.3836
vn -0.0219 0.9854 -0.1689
vn 0.0118 0.9720 -0.2346
vn 0.0844 0.9421 -0.3247
vn -0.0441 0.9845 -0.1695
vn -0.0553 0.9891 -0.1367
vn -0.0495 0.9457 -0.3213
vn -0.0570 0.8924 -0.4476
usemtl Material.039
s off
f 70/69/57 72/70/57 69/71/57
f 71/72/58 73/73/58 70/69/58
f 72/70/59 76/74/59 75/75/59
f 73/73/60 77/76/60 76/74/60
f 70/69/61 73/73/61 72/70/61
f 71/72/62 74/77/62 73/73/62
f 72/70/63 73/73/63 76/74/63
f 73/73/64 74/77/64 77/76/64
o Ground.017_Grid.017
v -9.636776 -3.037040 14.061852
v -0.692863 -2.815830 13.615583
v 9.220343 -2.419145 13.279634
v -9.513176 0.849034 4.615389
v -0.129166 0.683555 4.349997
v 9.276972 -1.276308 4.145796
v -8.858633 2.177971 -17.514292
v 0.456413 1.776922 -17.516165
v 9.516649 1.377146 -17.512911
v 0.142715 1.017688 -0.642076
v 9.396811 0.050419 -0.654329
v -9.179302 1.615589 -0.228472
vt 0.333333 0.888889
vt 0.222222 1.000000
vt 0.222222 0.888889
vt 0.444444 0.888889
vt 0.333333 1.000000
vt 0.444444 1.000000
vt 0.333333 1.000000
vt 0.333333 1.000000
vt 0.222222 1.000000
vt 0.222222 1.000000
vt 0.444444 1.000000
vt 0.444444 1.000000
vn -0.0039 0.9248 0.3804
vn -0.0255 0.9357 0.3518
vn 0.1039 0.9935 0.0466
vn 0.0655 0.9973 0.0337
vn 0.0219 0.9872 0.1577
vn 0.2050 0.9758 0.0765
vn 0.0265 0.9346 0.3546
vn 0.2050 0.9710 0.1228
vn 0.0439 0.9959 0.0787
vn 0.0430 0.9980 0.0457
vn 0.0670 0.9953 0.0703
vn 0.1005 0.9583 0.2674
usemtl Material.039
s off
f 79/78/65 81/79/65 78/80/65
f 80/81/66 82/82/66 79/78/66
f 88/83/67 85/84/67 87/85/67
f 87/85/68 84/86/68 89/87/68
f 82/82/69 89/87/69 81/79/69
f 83/88/70 87/85/70 82/82/70
f 79/78/71 82/82/71 81/79/71
f 80/81/72 83/88/72 82/82/72
f 88/83/73 86/89/73 85/84/73
f 87/85/74 85/84/74 84/86/74
f 82/82/75 87/85/75 89/87/75
f 83/88/76 88/83/76 87/85/76
o Ground.018_Grid.018
v -12.077383 0.050665 9.362918
v 1.530619 0.189122 9.362920
v 10.716043 0.143430 9.362918
v -12.078962 0.640377 0.178741
v 1.491709 0.758018 0.178267
v 10.626463 -0.158032 0.108415
v -12.167326 0.538020 -9.077034
v 1.458136 -1.144848 -9.526412
v 10.500704 -1.016753 -9.950732
vt 0.000000 0.444444
vt 0.111111 0.555556
vt 0.000000 0.555556
vt 0.111111 0.444444
vt 0.222222 0.555556
vt 0.000000 0.666667
vt 0.111111 0.666667
vt 0.222222 0.444444
vt 0.222222 0.666667
vn -0.0086 0.9979 0.0641
vn 0.1001 0.9931 0.0611
vn -0.0087 0.9999 -0.0110
vn 0.0965 0.9767 -0.1918
vn -0.0102 0.9980 0.0619
vn 0.0050 0.9995 -0.0326
vn 0.1141 0.9748 -0.1915
vn -0.0181 0.9962 -0.0848
usemtl Material.039
s off
f 90/90/77 94/91/77 93/92/77
f 91/93/78 95/94/78 94/91/78
f 94/91/79 96/95/79 93/92/79
f 95/94/80 97/96/80 94/91/80
f 90/90/81 91/93/81 94/91/81
f 91/93/82 92/97/82 95/94/82
f 94/91/83 97/96/83 96/95/83
f 95/94/84 98/98/84 97/96/84
o Ground.019_Grid.019
v -14.121388 -3.161544 10.728418
v -4.367936 -0.666435 10.885042
v 4.498781 0.862969 10.948111
v 13.632741 1.514195 10.949041
v -13.864106 -0.171163 -10.880167
v -4.135204 -0.032620 -10.880152
v 4.731513 0.142557 -10.880880
v 13.625600 1.512041 -10.869410
vt 0.777778 1.000000
vt 0.666667 1.000000
vt 0.666667 1.000000
vt 0.555556 1.000000
vt 0.555556 1.000000
vt 0.444444 1.000000
vt 0.444444 1.000000
vt 0.777778 1.000000
vn -0.0711 0.9969 -0.0337
vn -0.1701 0.9851 0.0269
vn -0.2477 0.9601 0.1299
vn -0.1522 0.9884 -0.0000
vn -0.0197 0.9993 -0.0332
vn -0.0142 0.9995 0.0290
usemtl Material.039
s off
f 102/99/85 105/100/85 101/101/85
f 101/101/86 104/102/86 100/103/86
f 100/103/87 103/104/87 99/105/87
f 102/99/88 106/106/88 105/100/88
f 101/101/89 105/100/89 104/102/89
f 100/103/90 104/102/90 103/104/90
