# Blender v2.82 (sub 7) OBJ File: 'garden.blend'
# www.blender.org
mtllib reed.mtl
o Reed.001.inst.001_Cube.024
v 0.023912 -2.220707 0.043916
v 0.045148 1.663686 0.060711
v 0.053029 -2.220707 0.019926
v 0.023912 0.901623 0.043916
v 0.053029 0.901623 0.019926
v 0.023912 1.459873 0.043916
v 0.053029 1.459873 0.019926
v 0.005641 0.984272 0.058981
v 0.071325 0.984272 0.004861
v 0.005641 1.388131 0.058981
v 0.071325 1.388131 0.004861
vt 0.886491 0.250000
vt 0.948991 0.500000
vt 0.886491 0.500000
vt 0.823991 0.250000
vt 0.698991 0.500000
vt 0.698991 0.250000
vt 0.315896 0.250000
vt 0.331521 0.500000
vt 0.315896 0.500000
vt 0.300271 0.250000
vt 0.269021 0.500000
vt 0.269021 0.250000
vt 0.300271 0.500000
vt 0.823991 0.500000
vt 0.331521 0.250000
vn -0.6306 0.1288 -0.7654
vn -0.6359 0.0000 -0.7718
vn -0.6359 -0.0001 -0.7718
vn -0.6359 0.0001 -0.7718
usemtl reed
s off
f 6/1/1 2/2/1 7/3/1
f 4/4/2 3/5/2 1/6/2
f 10/7/3 7/8/3 11/9/3
f 8/10/4 5/11/4 4/12/4
f 10/7/2 9/13/2 8/10/2
f 4/4/2 5/14/2 3/5/2
f 10/7/3 6/15/3 7/8/3
f 8/10/4 9/13/4 5/11/4
f 10/7/2 11/9/2 9/13/2
