# Blender v2.82 (sub 7) OBJ File: 'university.blend'
# www.blender.org
mtllib rocks.mtl
o Rock_Cube.001
v -0.876490 -0.446334 0.976479
v -0.712384 0.111122 0.059918
v -1.048420 -0.233219 -0.552834
v -0.468611 0.177841 -0.353755
v 0.602169 -0.054075 0.602169
v 0.315066 0.096127 0.265127
v 0.846322 -0.167784 -1.180984
v 0.542759 0.139727 -0.444464
v -0.137160 -0.268449 0.789324
v -0.245154 0.145203 0.273471
vt 0.257603 0.066658
vt 0.007603 0.316658
vt 0.007603 0.066658
vt 0.257603 0.316658
vt 0.007603 0.566658
vt 0.749016 0.448738
vt 0.601539 0.596215
vt 0.601539 0.448738
vt 0.601539 0.375000
vt 0.896492 0.596215
vt 0.601539 0.153785
vt 0.250000 0.750000
vt 0.125000 0.500000
vt 0.375000 0.750000
vt 0.507603 0.566658
vt 0.382603 0.816658
vt 0.257603 0.816658
vt 0.749016 0.596215
vt 0.257603 0.566658
vt 0.822754 0.596215
vt 0.125000 0.750000
vt 0.375000 0.500000
vt 0.507603 0.816658
vn -0.8374 0.5206 0.1667
vn -0.2505 0.6848 -0.6843
vn 0.7874 0.6126 0.0687
vn -0.0779 0.8579 0.5079
vn 0.2311 -0.9558 -0.1820
vn 0.0876 0.9959 0.0206
vn -0.1256 0.8620 0.4911
vn -0.5280 0.8306 -0.1772
vn 0.0002 0.9228 -0.3852
vn 0.3075 0.9386 0.1563
vn -0.3392 0.6980 0.6307
vn 0.1934 -0.9685 -0.1567
vn 0.0581 -0.9958 0.0714
vn 0.0443 0.9962 0.0754
vn -0.1143 0.9892 0.0922
vn 0.0780 0.7857 0.6137
usemtl RockMaterial
s off
f 2/1/1 3/2/1 1/3/1
f 4/4/2 7/5/2 3/2/2
f 8/6/3 5/7/3 7/8/3
f 9/9/4 2/10/4 1/11/4
f 9/12/5 3/13/5 5/14/5
f 4/15/6 10/16/6 6/17/6
f 6/18/7 9/9/7 5/7/7
f 2/1/8 4/4/8 3/2/8
f 4/4/9 8/19/9 7/5/9
f 8/6/10 6/18/10 5/7/10
f 9/9/11 10/20/11 2/10/11
f 1/21/12 3/13/12 9/12/12
f 3/13/13 7/22/13 5/14/13
f 6/17/14 8/19/14 4/15/14
f 4/15/15 2/23/15 10/16/15
f 6/18/16 10/20/16 9/9/16
o Rock.001_Cube.002
v -0.876490 -0.446334 0.976479
v -0.752832 0.111122 0.632911
v -1.048420 -0.233219 -0.552834
v -0.661564 0.177841 0.028542
v 0.650732 -0.119668 0.041784
v 0.363629 0.030534 -0.295258
v 0.846322 -0.167784 -1.180984
v 0.392392 0.225317 -0.424008
v -0.111949 -0.268449 0.611220
v -0.219943 0.145203 0.095367
vt 0.331893 0.224123
vt 0.432478 0.324708
vt 0.331893 0.324708
vt 0.432478 0.425292
vt 0.331893 0.425292
vt 0.693088 0.425292
vt 0.793673 0.525877
vt 0.693088 0.525877
vt 0.693088 0.375000
vt 0.894258 0.525877
vt 0.693088 0.224123
vt 0.642796 0.525877
vt 0.592503 0.425292
vt 0.420792 0.500000
vt 0.420792 0.750000
vt 0.295792 0.750000
vt 0.843966 0.525877
vt 0.432478 0.224123
vt 0.793673 0.425292
vt 0.592503 0.525877
vt 0.170792 0.750000
vt 0.170792 0.500000
vn -0.8253 0.5392 0.1679
vn -0.2092 0.8109 -0.5465
vn 0.4320 0.9012 0.0336
vn 0.2965 0.4526 0.8410
vn 0.1064 -0.9876 -0.1155
vn 0.0554 0.9915 0.1178
vn 0.2715 0.7778 0.5669
vn -0.9818 0.1356 -0.1333
vn -0.2333 0.8604 -0.4531
vn 0.8812 0.1632 0.4437
vn 0.4545 0.7389 0.4974
vn 0.1539 -0.9761 -0.1533
vn 0.0501 -0.9976 0.0473
vn 0.5632 0.3961 0.7251
vn 0.0420 0.9788 0.2005
vn 0.2963 0.9404 0.1667
usemtl RockMaterial
s off
f 11/24/17 14/25/17 13/26/17
f 13/26/18 18/27/18 17/28/18
f 17/29/19 16/30/19 15/31/19
f 19/32/20 12/33/20 11/34/20
f 19/35/21 13/36/21 15/31/21
f 14/37/22 12/38/22 20/39/22
f 15/31/23 20/40/23 19/32/23
f 11/24/24 12/41/24 14/25/24
f 13/26/25 14/25/25 18/27/25
f 17/29/26 18/42/26 16/30/26
f 19/32/27 20/40/27 12/33/27
f 11/43/28 13/36/28 19/35/28
f 13/36/29 17/29/29 15/31/29
f 16/44/30 18/45/30 20/39/30
f 18/45/31 14/37/31 20/39/31
f 15/31/32 16/30/32 20/40/32
o Rock.002_Cube.003
v -0.876490 -0.446334 0.976479
v -0.335231 0.111122 0.520532
v -1.048420 -0.233219 -0.552834
v -0.531652 0.442064 0.101342
v 0.650732 -0.119668 0.041784
v 0.363629 0.030534 -0.295258
v 0.237957 -0.167784 -1.072340
v 0.092876 0.225317 -0.553600
v -0.111949 -0.268449 0.611220
v -0.043851 0.145203 0.440597
v 0.319719 0.127925 -0.416432
v 0.419383 -0.143726 -0.549943
vt 0.414173 0.184473
vt 0.164173 0.434473
vt 0.164173 0.184473
vt 0.414173 0.684473
vt 0.164173 0.684473
vt 0.832726 0.690108
vt 0.832726 0.815108
vt 0.582726 0.690108
vt 0.582726 0.440108
vt 0.884301 0.815108
vt 0.582726 0.065108
vt 0.332726 0.565108
vt 0.457726 0.815108
vt 0.342298 0.750000
vt 0.217298 0.750000
vt 0.217298 0.500000
vt 0.582726 0.815108
vt 0.759301 0.815108
vt 0.414173 0.434473
vt 0.582726 0.565108
vt 0.832726 0.565108
vt 0.332726 0.815108
vt 0.217298 0.625000
vt 0.467298 0.500000
vt 0.467298 0.750000
vn -0.6303 0.7561 0.1762
vn -0.2904 0.7218 -0.6282
vn 0.9305 0.3635 -0.0450
vn 0.3199 0.3941 0.8616
vn 0.0608 -0.9950 -0.0790
vn 0.4892 0.8614 0.1367
vn 0.5505 0.2393 0.7998
vn -0.8450 0.1491 0.5136
vn -0.3111 0.7733 -0.5525
vn 0.7205 0.6347 -0.2795
vn 0.5943 0.5197 -0.6138
vn 0.6929 0.6567 -0.2976
vn 0.2110 0.3428 0.9154
vn 0.1539 -0.9761 -0.1533
vn 0.0608 -0.9978 0.0248
vn 0.1718 -0.9848 -0.0271
vn -0.0557 0.7683 0.6377
vn 0.4463 0.8850 0.1327
vn 0.0705 0.7987 0.5975
vn 0.3923 0.9168 0.0744
usemtl RockMaterial
s off
f 22/46/33 23/47/33 21/48/33
f 23/47/34 28/49/34 27/50/34
f 31/51/35 26/52/35 32/53/35
f 29/54/36 22/55/36 21/56/36
f 23/57/37 32/53/37 29/58/37
f 30/59/38 26/60/38 28/61/38
f 25/62/39 30/63/39 29/54/39
f 22/46/40 24/64/40 23/47/40
f 23/47/41 24/64/41 28/49/41
f 32/53/42 27/65/42 28/66/42
f 32/53/43 28/66/43 31/51/43
f 26/52/44 25/62/44 32/53/44
f 29/54/45 30/63/45 22/55/45
f 21/67/46 23/57/46 29/58/46
f 23/57/47 27/65/47 32/53/47
f 32/53/48 25/62/48 29/58/48
f 31/68/49 28/61/49 26/60/49
f 28/61/50 24/69/50 30/59/50
f 24/69/51 22/70/51 30/59/51
f 25/62/52 26/52/52 30/63/52
