# Blender v2.75 (sub 0) OBJ File: ''
# www.blender.org
mtllib testingCube.mtl
o Cube.001
v 1.000000 -1.000000 -1.000000
v 1.000000 -1.000000 1.000000
v -1.000000 -1.000000 1.000000
v -1.000000 -1.000000 -1.000000
v 1.000000 1.000000 -0.999999
v -1.000000 1.000000 -1.000000
v -1.000000 1.000000 1.000000
v 0.999999 1.000000 1.000001
vt 0.500000 0.000087
vt 0.500000 0.250043
vt 0.250043 0.250043
vt 0.250043 0.749957
vt 0.250043 0.500000
vt 0.500000 0.500000
vt 0.999913 0.500000
vt 0.749956 0.500000
vt 0.749957 0.250044
vt 0.000087 0.250043
vt 0.250044 0.000087
vt 0.500000 0.749957
vt 0.999913 0.250044
vt 0.000087 0.500000
vn 0.000000 -1.000000 -0.000000
vn -0.000000 1.000000 0.000000
vn 1.000000 0.000000 0.000000
vn -0.000000 -0.000000 1.000000
vn -1.000000 -0.000000 0.000000
vn 0.000000 0.000000 -1.000000
usemtl Material.001
s 1
f 2/1/1 3/2/1 4/3/1
f 5/4/2 6/5/2 7/6/2
f 5/7/3 8/8/3 2/9/3
f 8/8/4 7/6/4 3/2/4
f 7/6/5 6/5/5 4/3/5
f 1/10/6 4/3/6 6/5/6
f 1/11/1 2/1/1 4/3/1
f 8/12/2 5/4/2 7/6/2
f 1/13/3 5/7/3 2/9/3
f 2/9/4 8/8/4 3/2/4
f 3/2/5 7/6/5 4/3/5
f 5/14/6 1/10/6 6/5/6
