# Blender v2.82 (sub 7) OBJ File: 'university.blend'
# www.blender.org
mtllib watergrass.mtl
o Watergrass.002.inst_Cube.007
v -0.129940 -0.733318 -0.119529
v -0.156539 0.359842 0.013543
v 0.119123 -0.702620 -0.190556
v 0.000644 0.435000 -0.062904
v -0.275732 1.186166 0.158647
v -0.155393 1.273391 0.114250
v -0.528912 1.783408 0.338562
v -0.401716 1.685727 0.270596
vt 0.625000 0.250000
vt 0.375000 0.500000
vt 0.375000 0.250000
vt 0.625000 0.500000
vt 0.625000 0.250000
vt 0.625000 0.500000
vt 0.625000 0.500000
vt 0.625000 0.250000
vn -0.2850 0.1090 -0.9523
vn -0.4152 0.1134 -0.9026
vn -0.4077 0.1006 -0.9076
vn -0.4568 0.0521 -0.8880
vn -0.4689 0.0867 -0.8790
usemtl watergrass
s off
f 2/1/1 3/2/1 1/3/1
f 4/4/2 5/5/2 6/6/2
f 5/5/3 8/7/3 6/6/3
f 2/1/4 4/4/4 3/2/4
f 4/4/5 2/1/5 5/5/5
f 5/5/3 7/8/3 8/7/3
o Watergrass.003.inst_Cube.008
v 0.086665 -0.320252 -0.278699
v 0.132808 0.537535 -0.263942
v -0.036924 -0.300784 -0.228229
v 0.007891 0.519395 -0.214398
v 0.242043 1.188690 -0.282589
v 0.153827 1.253735 -0.244578
v 0.446340 1.663963 -0.346308
v 0.348549 1.583849 -0.310083
vt 0.375000 0.250000
vt 0.625000 0.500000
vt 0.625000 0.250000
vt 0.625000 0.250000
vt 0.625000 0.500000
vt 0.625000 0.500000
vt 0.375000 0.500000
vt 0.625000 0.250000
vn -0.3729 0.0360 -0.9272
usemtl watergrass
s off
f 9/9/6 12/10/6 10/11/6
f 12/10/6 13/12/6 10/11/6
f 16/13/6 13/12/6 14/14/6
f 9/9/6 11/15/6 12/10/6
f 12/10/6 14/14/6 13/12/6
f 16/13/6 15/16/6 13/12/6
o Watergrass.001.inst.001_Cube.021
v 0.118166 -0.279719 -0.259182
v 0.173786 0.754267 -0.241393
v -0.030810 -0.256252 -0.198344
v 0.023210 0.732401 -0.181673
v 0.305460 1.539176 -0.263871
v 0.199124 1.617582 -0.218052
v 0.551722 2.112075 -0.340678
v 0.433843 2.015505 -0.297012
vt 0.375000 0.250000
vt 0.625000 0.500000
vt 0.625000 0.250000
vt 0.625000 0.250000
vt 0.625000 0.500000
vt 0.625000 0.500000
vt 0.375000 0.500000
vt 0.625000 0.250000
vn -0.3729 0.0360 -0.9272
usemtl watergrass.001
s off
f 17/17/7 20/18/7 18/19/7
f 20/18/7 21/20/7 18/19/7
f 24/21/7 21/20/7 22/22/7
f 17/17/7 19/23/7 20/18/7
f 20/18/7 22/22/7 21/20/7
f 24/21/7 23/24/7 21/20/7
o Watergrass.inst.001_Cube.020
v -0.113243 -1.147340 -0.133219
v -0.145306 0.170368 0.027187
v 0.186981 -1.110336 -0.218836
v 0.044165 0.260964 -0.064963
v -0.288982 1.166428 0.202097
v -0.143925 1.271570 0.148581
v -0.594169 1.886350 0.418968
v -0.440845 1.768604 0.337042
vt 0.625000 0.250000
vt 0.375000 0.500000
vt 0.375000 0.250000
vt 0.625000 0.500000
vt 0.625000 0.250000
vt 0.625000 0.500000
vt 0.625000 0.500000
vt 0.625000 0.250000
vn -0.2850 0.1090 -0.9523
vn -0.4152 0.1134 -0.9026
vn -0.4077 0.1006 -0.9076
vn -0.4568 0.0521 -0.8880
vn -0.4689 0.0867 -0.8790
usemtl watergrass.001
s off
f 26/25/8 27/26/8 25/27/8
f 28/28/9 29/29/9 30/30/9
f 29/29/10 32/31/10 30/30/10
f 26/25/11 28/28/11 27/26/11
f 28/28/12 26/25/12 29/29/12
f 29/29/10 31/32/10 32/31/10
