# Blender v2.93.3 OBJ File: 'garden.blend'
# www.blender.org
mtllib paver.mtl
o Paver_Cube.012
v -0.979644 0.028467 0.979644
v -0.979644 0.081280 0.979644
v -0.979644 0.028467 -0.979644
v -0.979644 0.081280 -0.979644
v 0.979644 0.028467 0.979644
v 0.979644 0.081280 0.979644
v 0.979644 0.028467 -0.979644
v 0.979644 0.081280 -0.979644
vt 0.925738 0.000000
vt 0.675738 0.250000
vt 0.675738 0.000000
vt 0.925738 0.250000
vt 0.675738 0.500000
vt 0.925738 0.500000
vt 0.675738 0.750000
vt 0.925738 0.750000
vt 0.675738 1.000000
vt 0.104553 0.500000
vt 0.355266 0.750000
vt 0.355266 0.500000
vt 0.925738 1.000000
vt 0.104553 0.750000
vn -1.0000 0.0000 0.0000
vn 0.0000 0.0000 -1.0000
vn 1.0000 0.0000 0.0000
vn 0.0000 0.0000 1.0000
vn 0.0000 1.0000 0.0000
usemtl Material.013
s off
f 2/1/1 3/2/1 1/3/1
f 4/4/2 7/5/2 3/2/2
f 8/6/3 5/7/3 7/5/3
f 6/8/4 1/9/4 5/7/4
f 4/10/5 6/11/5 8/12/5
f 2/1/1 4/4/1 3/2/1
f 4/4/2 8/6/2 7/5/2
f 8/6/3 6/8/3 5/7/3
f 6/8/4 2/13/4 1/9/4
f 4/10/5 2/14/5 6/11/5
