# Blender v2.93.3 OBJ File: 'Planter.blend'
# www.blender.org
mtllib planter.mtl
v -1.851167 1.035572 1.849752
v -2.551425 -1.084355 2.550058
v -2.551425 1.035355 2.550058
v -2.551425 -1.084355 1.850729
v -2.551425 1.035355 1.850729
v -1.852095 -1.084355 2.550058
v -1.852095 1.035355 2.550058
v -1.852095 1.035355 1.850729
v 2.553039 -1.084355 2.550058
v 2.553039 1.035355 2.550058
v 2.553039 -1.084355 1.850729
v 2.553039 1.035355 1.850729
v -1.852095 1.035572 2.144059
v -2.145474 1.035572 1.850729
v -2.145474 -1.084355 1.850729
v -1.852143 1.035572 1.850729
v -1.852095 1.035572 1.850729
v -1.852095 -1.084355 2.144059
v 1.851167 1.035572 1.849752
v 2.551425 -1.084355 2.550058
v 2.551425 1.035355 2.550058
v 2.551425 -1.084355 1.850729
v 2.551425 1.035355 1.850729
v 1.852095 -1.084355 2.550058
v 1.852095 1.035355 2.550058
v 1.852095 1.035355 1.850729
v -2.553039 -1.084355 2.550058
v -2.553039 1.035355 2.550058
v -2.553039 -1.084355 1.850729
v -2.553039 1.035355 1.850729
v 1.852095 1.035572 2.144059
v 2.145474 1.035572 1.850729
v 2.145474 -1.084355 1.850729
v 1.852143 1.035572 1.850729
v 1.852095 1.035572 1.850729
v 1.852095 -1.084355 2.144059
v 0.000000 -1.079529 2.144059
v 0.000000 1.035572 2.144059
v 0.000000 1.035572 1.849752
v -1.851167 1.035572 -1.849752
v -2.551425 -1.084355 -2.550058
v -2.551425 1.035355 -2.550058
v -2.551425 -1.084355 -1.850729
v -2.551425 1.035355 -1.850729
v -1.852095 -1.084355 -2.550058
v -1.852095 1.035355 -2.550058
v -1.852095 1.035355 -1.850729
v 2.553039 -1.084355 -2.550058
v 2.553039 1.035355 -2.550058
v 2.553039 -1.084355 -1.850729
v 2.553039 1.035355 -1.850729
v -1.852095 1.035572 -2.144059
v -2.145474 1.035572 -1.850729
v -2.145474 -1.084355 -1.850729
v -1.852143 1.035572 -1.850729
v -1.852095 1.035572 -1.850729
v -1.852095 -1.084355 -2.144059
v -2.144323 1.034709 0.000000
v -2.145474 -1.079567 0.000000
v -1.851167 1.035572 0.000000
v 1.851167 1.035572 -1.849752
v 2.551425 -1.084355 -2.550058
v 2.551425 1.035355 -2.550058
v 2.551425 -1.084355 -1.850729
v 2.551425 1.035355 -1.850729
v 1.852095 -1.084355 -2.550058
v 1.852095 1.035355 -2.550058
v 1.852095 1.035355 -1.850729
v -2.553039 -1.084355 -2.550058
v -2.553039 1.035355 -2.550058
v -2.553039 -1.084355 -1.850729
v -2.553039 1.035355 -1.850729
v 1.852095 1.035572 -2.144059
v 2.145474 1.035572 -1.850729
v 2.145474 -1.084355 -1.850729
v 1.852143 1.035572 -1.850729
v 1.852095 1.035572 -1.850729
v 1.852095 -1.084355 -2.144059
v 0.000000 -1.079529 -2.144059
v 0.000000 1.035572 -2.144059
v 0.000000 1.035572 -1.849752
v 2.144323 1.034709 0.000000
v 0.000000 1.035572 0.000000
v 2.145474 -1.079567 0.000000
v 1.851167 1.035572 0.000000
vt 0.625000 0.000000
vt 0.375000 0.250000
vt 0.375000 0.000000
vt 0.625000 0.750000
vt 0.375000 1.000000
vt 0.375000 0.750000
vt 0.875000 0.500000
vt 0.625000 0.500000
vt 0.625000 0.500000
vt 0.375000 0.750000
vt 0.375000 0.500000
vt 0.857851 0.732851
vt 0.875000 0.626392
vt 0.875000 0.732908
vt 0.375000 0.249461
vt 0.625000 0.232366
vt 0.625000 0.250000
vt 0.376721 0.017092
vt 0.832617 0.156911
vt 0.939882 0.264101
vt 0.831953 0.264101
vt 0.857905 0.732908
vt 0.857905 0.750000
vt 0.375000 0.133602
vt 0.375872 0.123561
vt 0.625000 0.017092
vt 0.625000 0.123608
vt 0.375000 0.250000
vt 0.625000 0.000000
vt 0.375000 0.000000
vt 0.375000 1.000000
vt 0.625000 0.750000
vt 0.375000 0.750000
vt 0.875000 0.500000
vt 0.625000 0.500000
vt 0.375000 0.750000
vt 0.625000 0.500000
vt 0.375000 0.500000
vt 0.875000 0.626392
vt 0.857935 0.626248
vt 0.857851 0.732851
vt 0.375000 0.249461
vt 0.625000 0.250000
vt 0.376721 0.017092
vt 0.625000 0.017092
vt 0.939882 0.264101
vt 0.857905 0.750000
vt 0.857905 0.732908
vt 0.625000 0.232366
vt 0.625000 0.124276
vt 0.375872 0.123561
vt 0.625000 0.123608
vt 0.375000 0.250000
vt 0.625000 0.000000
vt 0.375000 0.000000
vt 0.375000 1.000000
vt 0.625000 0.750000
vt 0.375000 0.750000
vt 0.875000 0.500000
vt 0.625000 0.500000
vt 0.375000 0.750000
vt 0.625000 0.500000
vt 0.375000 0.500000
vt 0.857935 0.626248
vt 0.857851 0.732851
vt 0.375000 0.249461
vt 0.625000 0.250000
vt 0.376721 0.017092
vt 0.625000 0.017092
vt 0.939882 0.264101
vt 0.831953 0.264101
vt 0.857905 0.750000
vt 0.857905 0.732908
vt 0.375000 0.133602
vt 0.625000 0.232366
vt 0.625000 0.124276
vt 0.625000 0.000000
vt 0.375000 0.250000
vt 0.375000 0.000000
vt 0.625000 0.750000
vt 0.375000 1.000000
vt 0.375000 0.750000
vt 0.875000 0.500000
vt 0.625000 0.500000
vt 0.625000 0.500000
vt 0.375000 0.750000
vt 0.375000 0.500000
vt 0.857851 0.732851
vt 0.875000 0.732908
vt 0.375000 0.249461
vt 0.625000 0.232366
vt 0.625000 0.250000
vt 0.376721 0.017092
vt 0.939882 0.264101
vt 0.857905 0.732908
vt 0.857905 0.750000
vt 0.625000 0.017092
vt 0.625000 1.000000
vt 0.875000 0.750000
vt 0.625000 0.750000
vt 0.857908 0.732908
vt 0.939882 0.157582
vt 0.749815 0.750000
vt 0.749921 0.732851
vt 0.625000 1.000000
vt 0.875000 0.750000
vt 0.625000 0.750000
vt 0.857908 0.732908
vt 0.875000 0.732908
vt 0.939882 0.157582
vt 0.625000 1.000000
vt 0.875000 0.750000
vt 0.625000 0.750000
vt 0.857908 0.732908
vt 0.875000 0.732908
vt 0.749921 0.732851
vt 0.749815 0.750000
vt 0.625000 1.000000
vt 0.875000 0.750000
vt 0.625000 0.750000
vt 0.857908 0.732908
vn -1.0000 0.0000 0.0000
vn 0.0000 0.0000 1.0000
vn 0.0000 1.0000 0.0000
vn 1.0000 0.0000 0.0000
vn -0.0000 1.0000 -0.0005
vn 0.0000 0.0000 -1.0000
vn -1.0000 0.0005 -0.0006
vn 0.0029 1.0000 0.0000
vn 1.0000 0.0005 -0.0006
vn -0.0029 1.0000 0.0000
vn -1.0000 0.0005 0.0006
vn 0.0000 1.0000 0.0005
vn 1.0000 0.0005 0.0006
vn 0.0000 1.0000 0.0006
vn 0.0000 1.0000 -0.0006
usemtl Material
s off
f 3/1/1 4/2/1 2/3/1
f 7/4/2 2/5/2 6/6/2
f 5/7/3 7/4/3 8/8/3
f 12/9/4 9/10/4 11/11/4
f 1/12/5 58/13/5 14/14/5
f 7/4/4 18/15/4 13/16/4
f 5/17/6 15/18/6 4/2/6
f 83/19/3 1/20/3 39/21/3
f 17/22/3 13/23/3 1/12/3
f 37/24/2 13/16/2 18/15/2
f 59/25/7 14/26/7 58/27/7
f 22/28/4 21/29/4 20/30/4
f 20/31/2 25/32/2 24/33/2
f 25/32/3 23/34/3 26/35/3
f 27/36/1 30/37/1 29/38/1
f 82/39/8 85/40/8 19/41/8
f 25/32/1 36/42/1 24/33/1
f 23/43/6 33/44/6 32/45/6
f 19/46/3 83/19/3 39/21/3
f 31/47/3 35/48/3 19/41/3
f 37/24/2 31/49/2 38/50/2
f 32/45/9 84/51/9 82/52/9
f 43/53/1 42/54/1 41/55/1
f 41/56/6 46/57/6 45/58/6
f 46/57/3 44/59/3 47/60/3
f 48/61/4 51/62/4 50/63/4
f 58/13/10 60/64/10 40/65/10
f 46/57/4 57/66/4 45/58/4
f 44/67/2 54/68/2 53/69/2
f 40/70/3 83/19/3 81/71/3
f 52/72/3 56/73/3 40/65/3
f 79/74/6 52/75/6 80/76/6
f 53/69/11 59/25/11 58/27/11
f 63/77/4 64/78/4 62/79/4
f 67/80/6 62/81/6 66/82/6
f 65/83/3 67/80/3 68/84/3
f 72/85/1 69/86/1 71/87/1
f 61/88/12 82/39/12 74/89/12
f 67/80/1 78/90/1 73/91/1
f 65/92/2 75/93/2 64/78/2
f 83/19/3 61/94/3 81/71/3
f 77/95/3 73/96/3 61/88/3
f 79/74/6 73/91/6 78/90/6
f 84/51/13 74/97/13 82/52/13
f 3/1/1 5/17/1 4/2/1
f 7/4/2 3/98/2 2/5/2
f 5/7/3 3/99/3 7/4/3
f 12/9/4 10/100/4 9/10/4
f 14/14/3 16/101/3 1/12/3
f 1/12/10 60/64/10 58/13/10
f 7/4/4 6/6/4 18/15/4
f 5/17/6 14/26/6 15/18/6
f 83/19/3 60/102/3 1/20/3
f 13/23/3 38/103/3 1/12/3
f 38/103/3 39/104/3 1/12/3
f 1/12/14 16/101/14 17/22/14
f 37/24/2 38/50/2 13/16/2
f 59/25/1 15/18/1 14/26/1
f 22/28/4 23/43/4 21/29/4
f 20/31/2 21/105/2 25/32/2
f 25/32/3 21/106/3 23/34/3
f 27/36/1 28/107/1 30/37/1
f 19/41/3 34/108/3 32/109/3
f 32/109/5 82/39/5 19/41/5
f 25/32/1 31/49/1 36/42/1
f 23/43/6 22/28/6 33/44/6
f 19/46/3 85/110/3 83/19/3
f 39/104/3 38/103/3 19/41/3
f 38/103/3 31/47/3 19/41/3
f 35/48/3 34/108/3 19/41/3
f 37/24/2 36/42/2 31/49/2
f 32/45/4 33/44/4 84/51/4
f 43/53/1 44/67/1 42/54/1
f 41/56/6 42/111/6 46/57/6
f 46/57/3 42/112/3 44/59/3
f 48/61/4 49/113/4 51/62/4
f 40/65/3 55/114/3 53/115/3
f 53/115/12 58/13/12 40/65/12
f 46/57/4 52/75/4 57/66/4
f 44/67/2 43/53/2 54/68/2
f 40/70/3 60/102/3 83/19/3
f 81/116/3 80/117/3 40/65/3
f 80/117/3 52/72/3 40/65/3
f 56/73/3 55/114/3 40/65/3
f 79/74/6 57/66/6 52/75/6
f 53/69/1 54/68/1 59/25/1
f 63/77/4 65/92/4 64/78/4
f 67/80/6 63/118/6 62/81/6
f 65/83/3 63/119/3 67/80/3
f 72/85/1 70/120/1 69/86/1
f 74/89/3 76/121/3 61/88/3
f 61/88/8 85/40/8 82/39/8
f 67/80/1 66/82/1 78/90/1
f 65/92/2 74/97/2 75/93/2
f 83/19/3 85/110/3 61/94/3
f 73/96/3 80/117/3 61/88/3
f 80/117/3 81/116/3 61/88/3
f 61/88/15 76/121/15 77/95/15
f 79/74/6 80/76/6 73/91/6
f 84/51/4 75/93/4 74/97/4
