# Blender v2.93.3 OBJ File: 'Planter.blend'
# www.blender.org
mtllib planter.mtl
o Planter
v -2.551425 1.035355 2.550058
v -2.551425 1.035355 1.850729
v -1.852095 -1.084355 2.550058
v -1.852095 1.035355 2.550058
v 2.553039 1.035355 2.550058
v 2.553039 1.035355 1.850729
v -1.852095 1.035572 2.144059
v -2.145474 1.035572 1.850729
v -2.145474 -1.084355 1.850729
v -1.852143 1.035572 1.850729
v -1.852095 -1.084355 2.144059
v 2.551425 -1.084355 2.550058
v 2.551425 -1.084355 1.850729
v 1.852095 -1.084355 2.550058
v 1.852095 1.035355 2.550058
v -2.553039 -1.084355 2.550058
v -2.553039 -1.084355 1.850729
v 1.852095 1.035572 2.144059
v 2.145474 1.035572 1.850729
v 2.145474 -1.084355 1.850729
v 1.852143 1.035572 1.850729
v 1.852095 -1.084355 2.144059
v -2.551425 -1.084355 -2.550058
v -2.551425 1.035355 -2.550058
v -2.551425 1.035355 -1.850729
v -1.852095 -1.084355 -2.550058
v -1.852095 1.035355 -2.550058
v 2.553039 1.035355 -2.550058
v 2.553039 1.035355 -1.850729
v -1.852095 1.035572 -2.144059
v -2.145474 1.035572 -1.850729
v -2.145474 -1.084355 -1.850729
v -1.852143 1.035572 -1.850729
v -1.852095 -1.084355 -2.144059
v 2.551425 -1.084355 -2.550058
v 2.551425 -1.084355 -1.850729
v 1.852095 -1.084355 -2.550058
v 1.852095 1.035355 -2.550058
v -2.553039 -1.084355 -1.850729
v 1.852095 1.035572 -2.144059
v 2.145474 1.035572 -1.850729
v 2.145474 -1.084355 -1.850729
v 1.852143 1.035572 -1.850729
v 1.852095 -1.084355 -2.144059
vt 0.375000 0.750000
vt 0.625000 1.000000
vt 0.375000 1.000000
vt 0.625000 0.500000
vt 0.875000 0.750000
vt 0.625000 0.750000
vt 0.625000 0.500000
vt 0.375000 0.750000
vt 0.375000 0.500000
vt 0.625000 0.017092
vt 0.376721 0.017092
vt 0.625000 0.017092
vt 0.375000 0.249461
vt 0.625000 0.232366
vt 0.625000 0.250000
vt 0.375000 0.250000
vt 0.875000 0.732908
vt 0.857851 0.732851
vt 0.857851 0.732851
vt 0.625000 0.232366
vt 0.375000 0.249461
vt 0.625000 0.232366
vt 0.857905 0.750000
vt 0.857905 0.750000
vt 0.375000 1.000000
vt 0.625000 0.750000
vt 0.375000 0.750000
vt 0.625000 0.500000
vt 0.875000 0.750000
vt 0.875000 0.500000
vt 0.376721 0.017092
vt 0.376721 0.017092
vt 0.625000 0.017092
vt 0.376721 0.017092
vt 0.375000 0.249461
vt 0.375000 0.250000
vt 0.625000 0.250000
vt 0.857851 0.732851
vt 0.875000 0.732908
vt 0.857851 0.732851
vt 0.625000 0.750000
vt 0.375000 1.000000
vt 0.625000 0.750000
vt 0.375000 0.750000
vt 0.625000 0.500000
vt 0.875000 0.750000
vt 0.875000 0.500000
vt 0.375000 0.750000
vt 0.625000 0.500000
vt 0.375000 0.500000
vt 0.625000 0.250000
vt 0.939882 0.264101
vt 0.939882 0.264101
vt 0.939882 0.264101
vt 0.375000 0.250000
vt 0.625000 0.750000
vt 0.375000 1.000000
vt 0.375000 0.750000
vt 0.625000 0.500000
vt 0.875000 0.750000
vt 0.875000 0.500000
vt 0.375000 0.249461
vt 0.625000 0.017092
vt 0.375000 0.250000
vt 0.625000 0.250000
vt 0.857905 0.750000
vt 0.875000 0.732908
vt 0.625000 1.000000
vt 0.625000 0.232366
vt 0.875000 0.732908
vt 0.625000 1.000000
vt 0.625000 0.750000
vt 0.939882 0.264101
vt 0.625000 1.000000
vt 0.875000 0.500000
vt 0.857905 0.750000
vn 0.0000 0.0000 1.0000
vn 0.0000 1.0000 0.0003
vn 1.0000 -0.0008 0.0000
vn -1.0000 0.0000 0.0000
vn 1.0000 0.0000 0.0000
vn 0.0000 0.0000 -1.0000
vn 0.0000 1.0000 0.0000
vn -1.0000 0.0008 0.0000
vn 0.0003 1.0000 0.0000
vn -0.0003 1.0000 0.0000
vn -1.0000 0.0000 -0.0023
vn 0.0000 1.0000 -0.0003
usemtl Material
s off
f 3/1/1 1/2/1 16/3/1
f 10/4/2 1/5/2 4/6/2
f 6/7/3 12/8/3 13/9/3
f 31/10/4 9/11/4 8/12/4
f 4/6/5 11/13/5 7/14/5
f 2/15/6 9/11/6 17/16/6
f 31/17/7 10/18/7 33/19/7
f 40/20/6 34/21/6 30/22/6
f 18/23/7 10/18/7 7/24/7
f 1/5/8 17/16/8 16/3/8
f 12/25/1 15/26/1 14/27/1
f 21/28/9 5/29/9 6/30/9
f 31/10/4 32/31/4 9/11/4
f 42/32/5 19/33/5 20/34/5
f 15/26/4 22/35/4 14/27/4
f 13/36/6 19/33/6 6/37/6
f 21/38/7 41/39/7 43/40/7
f 22/35/1 7/14/1 11/13/1
f 6/7/3 5/41/3 12/8/3
f 23/42/6 27/43/6 26/44/6
f 33/45/10 24/46/10 25/47/10
f 35/48/3 29/49/3 36/50/3
f 27/43/5 34/21/5 26/44/5
f 25/51/1 32/31/1 31/10/1
f 21/52/7 33/53/7 10/54/7
f 39/55/11 24/46/11 23/42/11
f 38/56/6 35/57/6 37/58/6
f 43/59/12 28/60/12 38/56/12
f 10/4/10 2/61/10 1/5/10
f 38/56/4 44/62/4 40/20/4
f 41/63/1 36/64/1 29/65/1
f 3/1/1 4/6/1 1/2/1
f 43/40/7 30/66/7 33/19/7
f 4/6/5 3/1/5 11/13/5
f 2/15/6 8/12/6 9/11/6
f 31/17/7 8/67/7 10/18/7
f 40/20/6 44/62/6 34/21/6
f 18/23/7 21/38/7 10/18/7
f 1/5/8 2/15/8 17/16/8
f 12/25/1 5/68/1 15/26/1
f 21/28/2 15/26/2 5/29/2
f 42/32/5 41/63/5 19/33/5
f 15/26/4 18/69/4 22/35/4
f 13/36/6 20/34/6 19/33/6
f 21/38/7 19/70/7 41/39/7
f 22/35/1 18/69/1 7/14/1
f 23/42/6 24/71/6 27/43/6
f 33/45/12 27/43/12 24/46/12
f 35/48/3 28/72/3 29/49/3
f 27/43/5 30/22/5 34/21/5
f 25/51/1 39/55/1 32/31/1
f 21/52/7 43/73/7 33/53/7
f 39/55/8 25/51/8 24/46/8
f 38/56/6 28/74/6 35/57/6
f 43/59/9 29/75/9 28/60/9
f 38/56/4 37/58/4 44/62/4
f 41/63/1 42/32/1 36/64/1
f 43/40/7 40/76/7 30/66/7
