# Blender v2.82 (sub 7) OBJ File: 'garden.blend'
# www.blender.org
mtllib wall.mtl
o Wall.inst_Cube.016
v -7.883953 -1.812975 0.520187
v -7.883953 -1.812975 -0.520187
v 7.883979 -1.812975 0.520187
v 7.883979 -1.812975 -0.520187
v -7.880466 0.610348 0.234313
v -7.883953 0.324474 0.520187
v -7.880466 0.610348 -0.234313
v -7.883953 0.324474 -0.520187
v 7.897101 0.610348 0.234313
v 7.883979 0.324474 0.520187
v 7.897101 0.610348 -0.234313
v 7.883979 0.324474 -0.520187
vt 0.924724 0.694261
vt 0.683789 0.806871
vt 0.683789 0.694261
vt 0.897796 0.622465
vt 0.677288 0.872465
vt 0.677288 0.622465
vt 0.911748 0.223228
vt 0.691240 0.473228
vt 0.691240 0.223228
vt 0.390882 0.250000
vt 0.170374 0.500000
vt 0.170374 0.250000
vt 0.808460 0.400719
vt 0.885851 0.219415
vt 0.885851 0.469415
vt 0.679257 0.625566
vt 0.929257 0.625566
vt 0.924724 0.806871
vt 0.679257 0.875566
vt 0.907098 0.222933
vt 0.686589 0.472933
vt 0.686589 0.222933
vt 0.897796 0.872466
vt 0.911748 0.473228
vt 0.390882 0.500000
vt 0.808460 0.288110
vt 0.929257 0.875566
vt 0.907098 0.472933
vn 0.0000 1.0000 0.0000
vn 1.0000 0.0000 0.0000
vn -1.0000 0.0000 0.0000
vn 0.0000 0.0000 -1.0000
vn -0.9999 0.0122 0.0000
vn 0.0000 0.7071 -0.7071
vn 0.9989 -0.0458 0.0000
vn -0.0000 0.7071 0.7071
vn 0.0000 0.0000 1.0000
vn 0.9989 -0.0459 0.0000
usemtl Material.033
s off
f 7/1/1 9/2/1 11/3/1
f 12/4/2 3/5/2 4/6/2
f 6/7/3 2/8/3 1/9/3
f 8/10/4 4/11/4 2/12/4
f 5/13/5 8/14/5 6/15/5
f 7/1/6 12/16/6 8/17/6
f 9/2/7 12/16/7 11/3/7
f 5/18/8 10/19/8 9/2/8
f 10/20/9 1/21/9 3/22/9
f 7/1/1 5/18/1 9/2/1
f 12/4/2 10/23/2 3/5/2
f 6/7/3 8/24/3 2/8/3
f 8/10/4 12/25/4 4/11/4
f 5/13/5 7/26/5 8/14/5
f 7/1/6 11/3/6 12/16/6
f 9/2/10 10/19/10 12/16/10
f 5/18/8 6/27/8 10/19/8
f 10/20/9 6/28/9 1/21/9
