# Blender v2.82 (sub 7) OBJ File: 'garden.blend'
# www.blender.org
mtllib water.mtl
o Water_Plane.003
v 10.768795 0.000000 -31.450737
v 1.637113 0.000000 -17.349873
v 10.826347 0.000000 -29.244400
v 10.826347 0.000000 -29.244400
v 19.251217 0.000000 -29.504501
v 19.164883 0.000000 -30.693811
v 20.511686 0.000000 -16.629908
v 16.986721 0.000000 -16.772133
vt 0.119519 0.099473
vt 0.269602 0.105061
vt 0.433301 0.360626
vt 0.270627 0.000000
vt 0.269602 0.105061
vt 0.121056 0.047175
vt 0.159859 0.374460
vt 0.097064 0.376360
vn 0.0000 1.0000 0.0000
vn 0.0000 0.0000 1.0000
usemtl Material.042
s off
f 5/1/1 4/2/1 2/3/1
f 1/4/2 3/5/2 4/2/2
f 4/2/1 6/6/1 1/4/1
f 6/6/1 4/2/1 5/1/1
f 5/1/1 2/3/1 8/7/1
f 4/2/2 3/5/2 2/3/2
f 5/1/1 8/7/1 7/8/1
o Water.001_Plane.001
v -30.174377 0.000000 8.415375
v -26.193695 0.000000 7.990565
v -18.746609 0.000000 7.007186
v -18.746609 0.000000 7.007186
v -30.174377 0.000000 -11.195293
v -17.623753 0.000000 -12.728546
v -18.295076 0.000000 -0.774382
vt 0.929087 0.905090
vt 0.000000 0.000000
vt 0.788379 0.716767
vt 1.000000 0.044757
vt 0.796607 0.894931
vt 0.776420 0.245808
vt 1.000000 0.914218
vn 0.0000 1.0000 0.0000
vn 0.0000 0.0000 1.0000
usemtl Material.042
s off
f 10/9/3 12/10/3 15/11/3
f 15/11/3 13/12/3 10/9/3
f 12/10/4 10/9/4 11/13/4
f 14/14/3 13/12/3 15/11/3
f 13/12/3 9/15/3 10/9/3
o Water.002_Plane.004
v -8.616048 0.000000 5.919935
v -16.779789 0.000000 8.376789
v -18.746609 0.000000 7.007186
v -18.746609 0.000000 7.007186
v -17.623753 0.000000 -12.728546
v -17.623753 0.000000 -12.728546
v -11.701292 0.000000 -13.505221
v -7.999700 0.000000 -13.073693
v -3.452993 0.000000 -9.900372
v -3.743491 0.000000 -14.962317
v -2.737726 -0.058261 2.445160
v -3.743489 0.000000 -14.962317
v -2.561716 -0.034616 5.686816
v -18.295076 0.000000 -0.774382
vt 0.786178 0.713822
vt 0.498213 0.501787
vt 0.572357 0.427643
vt 0.000000 0.000000
vt 0.796607 0.894931
vt 0.000000 0.000000
vt 0.510941 0.398045
vt 0.000000 0.000000
vt 0.135963 0.272310
vt 0.583395 0.780180
vt 0.670915 0.339820
vt 0.776420 0.245808
vt 0.510941 0.398045
vt 0.788379 0.716767
vt 0.776420 0.245808
vt 0.604974 0.435985
vn 0.0000 1.0000 0.0000
vn 0.0000 0.0000 1.0000
vn 0.0054 1.0000 -0.0076
vn 0.0028 1.0000 0.0046
vn 0.0053 1.0000 -0.0077
usemtl Material.042
s off
f 29/16/5 24/17/5 23/18/5
f 19/19/6 18/20/6 17/21/6
f 24/17/5 25/22/5 23/18/5
f 16/23/7 28/24/7 26/25/7
f 29/16/5 22/26/5 21/27/5
f 29/16/8 26/25/8 24/17/8
f 27/28/6 23/18/6 25/22/6
f 26/25/9 29/29/9 16/23/9
f 29/29/5 19/19/5 17/21/5
f 16/23/5 29/29/5 17/21/5
f 21/27/6 20/30/6 29/16/6
f 29/16/5 23/31/5 22/26/5
o Water.003_Plane.005
v 1.637113 0.000000 -17.349873
v 1.637113 0.000000 -17.349873
v 13.642479 0.000000 2.031217
v 10.111118 -0.106763 5.239584
v -3.452993 0.000000 -9.900372
v -3.743491 0.000000 -14.962317
v -2.737726 -0.058261 2.445160
v -3.743489 0.000000 -14.962317
v -2.561716 -0.034616 5.686816
vt 0.433301 0.360626
vt 0.498213 0.501787
vt 0.219434 0.780566
vt 0.433301 0.360626
vt 0.510941 0.398045
vt 0.510941 0.398045
vt 0.583395 0.780180
vt 0.135963 0.272310
vt 0.414576 0.835424
vn 0.0000 1.0000 0.0000
vn 0.0054 1.0000 -0.0076
vn -0.0034 1.0000 0.0049
vn 0.0000 0.0000 1.0000
vn -0.0028 0.9995 0.0302
usemtl Material.042
s off
f 31/32/10 34/33/10 32/34/10
f 30/35/10 37/36/10 35/37/10
f 36/38/11 38/39/11 33/40/11
f 36/38/12 32/34/12 34/33/12
f 31/32/10 35/37/10 34/33/10
f 35/37/13 31/32/13 30/35/13
f 36/38/14 33/40/14 32/34/14
o Water.004_Plane.006
v 1.637113 0.000000 -17.349873
v 13.642479 0.000000 2.031217
v 20.826099 0.000000 -11.102932
v 19.268848 0.000000 -3.300594
v 19.268848 0.000000 -3.300594
v 21.405056 0.000000 -16.049351
v 20.511686 0.000000 -16.629908
v 21.634813 0.000000 -14.614043
v 16.986721 0.000000 -16.772133
vt 0.000000 0.000000
vt 0.000000 0.000000
vt 0.000000 0.000000
vt 0.219434 0.780566
vt 0.077056 0.419408
vt 0.081149 0.388569
vt 0.097064 0.376360
vt 0.091292 0.495656
vt 0.159859 0.374460
vt 0.433301 0.360626
vn 0.0000 0.0000 1.0000
vn 0.0000 1.0000 0.0000
usemtl Material.042
s off
f 43/41/15 41/42/15 42/43/15
f 43/41/16 41/42/16 40/44/16
f 46/45/16 44/46/16 45/47/16
f 40/44/16 41/48/16 45/47/16
f 41/48/16 46/45/16 45/47/16
f 45/47/16 47/49/16 40/44/16
f 47/49/16 39/50/16 40/44/16
